<?xml version="1.0" standalone="no"?>
<!DOCTYPE svg PUBLIC "-//W3C//DTD SVG 20010904//EN"
 "http://www.w3.org/TR/2001/REC-SVG-20010904/DTD/svg10.dtd">
<svg version="1.0" xmlns="http://www.w3.org/2000/svg"
 width="260.000000pt" height="260.000000pt" viewBox="0 0 260.000000 260.000000"
 preserveAspectRatio="xMidYMid meet">
<metadata>
Created by potrace 1.11, written by Peter Selinger 2001-2013
</metadata>
<g transform="translate(0.000000,260.000000) scale(0.100000,-0.100000)"
fill="#000000" stroke="none">
<path d="M0 1300 l0 -1300 1300 0 1300 0 0 1300 0 1300 -1300 0 -1300 0 0
-1300z m2270 640 l0 -330 -119 0 -119 0 -7 33 c-18 83 -89 154 -179 178 -23 6
-73 9 -112 7 -81 -5 -143 -35 -188 -89 l-26 -31 0 -432 c0 -475 2 -494 60
-574 51 -71 109 -105 213 -127 l27 -5 0 -120 0 -120 -520 0 -520 0 0 120 0
120 28 5 c103 22 161 56 212 127 58 80 60 99 60 574 l0 432 -26 31 c-45 54
-107 84 -188 89 -82 5 -135 -7 -192 -44 -48 -31 -82 -78 -96 -133 l-10 -41
-119 0 -119 0 0 330 0 330 970 0 970 0 0 -330z"/>
</g>
</svg>
