<svg id="Layer_1" data-name="Layer 1" xmlns="http://www.w3.org/2000/svg" viewBox="0 0 211.559 70.398"><defs><style>.cls-1{fill:#59595b;}.cls-2{fill:#58595b;}.cls-3{fill:#f58220;}.cls-4{fill:#fff;}</style></defs><title>University-Libraries-left-standard-RGB</title><rect class="cls-1" x="0.056" y="53.282" width="211.384" height="0.633"/><path class="cls-2" d="M70.563,15.147a2.127,2.127,0,0,1,.608,1.338c.058.309.173.459.347.449q.318-.029.3-.461c-.01-.144-.039-.38-.087-.706a7.57,7.57,0,0,1-.072-1.239A1.823,1.823,0,0,0,71.5,13.5q-.166-.173-.963-.172H54.954a.769.769,0,0,0-.645.209,1.657,1.657,0,0,0-.152.872,8.681,8.681,0,0,1-.217,1.716,6.44,6.44,0,0,0-.173,1.11q0,.375.26.389t.391-.55a3.352,3.352,0,0,1,.817-1.772,2.525,2.525,0,0,1,1.7-.47h3.834a1.108,1.108,0,0,1,.7.145.978.978,0,0,1,.152.667l.015.376v14.36a2.713,2.713,0,0,1-.391,1.689,2.3,2.3,0,0,1-1.5.615q-.478.057-.478.283,0,.31.435.311c.1,0,.42-.029.972-.087a10.214,10.214,0,0,1,1.029-.044l1.13-.014,1.059.014a11.368,11.368,0,0,1,1.3.044,5.639,5.639,0,0,0,.71.087c.27,0,.406-.1.406-.312q0-.24-.507-.325a2,2,0,0,1-1.895-2.014l-.014-.565v-14.2a1.391,1.391,0,0,1,.166-.855,1.208,1.208,0,0,1,.8-.174h4.065a2.972,2.972,0,0,1,1.635.311Zm7.845-.549a1.947,1.947,0,0,1,1.155-.225H81.83a14.354,14.354,0,0,1,3.076.217,1.527,1.527,0,0,1,1.112.868,2.3,2.3,0,0,1,.173.883v.376q0,.448.281.434a.329.329,0,0,0,.324-.224,5.882,5.882,0,0,0,.148-1.045l.057-.85q.073-.951.116-1.153a1.648,1.648,0,0,0,.044-.332c0-.279-.16-.418-.478-.418a4.331,4.331,0,0,0-.579.058q-.187.028-1.041.058l-2.054.1q-1.36.058-3.125.058a45.459,45.459,0,0,1-4.977-.232,8.672,8.672,0,0,0-.969-.072q-.651,0-.651.4c0,.18.139.269.419.269a1.942,1.942,0,0,1,1.772.718,5.767,5.767,0,0,1,.456,2.789V29.515l-.014.942q0,1.738-1.042,2.029l-.55.159q-.377.1-.376.34,0,.311.463.311a5.092,5.092,0,0,0,.752-.1,24.923,24.923,0,0,1,3.574-.174q1.807,0,4.571.261.71.057,1.129.057a3.975,3.975,0,0,0,3.211-1.557,3.823,3.823,0,0,0,1.057-2.234c0-.26-.09-.385-.267-.375-.109.01-.218.1-.327.26q-1.617,2.561-7.3,2.561a4.88,4.88,0,0,1-2.232-.3q-.441-.3-.44-1.536V24.82l-.015-.478a.629.629,0,0,1,.238-.58,2.064,2.064,0,0,1,.946-.144h3.191a3.309,3.309,0,0,1,1.761.347,1.9,1.9,0,0,1,.693,1.316l.086.405a.345.345,0,0,0,.37.319c.188,0,.281-.121.281-.361,0-.087-.009-.226-.029-.419q-.086-.866-.086-1.746,0-1.153.128-2.554c.011-.144.016-.25.016-.317,0-.25-.093-.38-.281-.39s-.32.106-.37.347a2.926,2.926,0,0,1-.419,1.215,1.926,1.926,0,0,1-1.013.42,13.022,13.022,0,0,1-2.4.173H79.016c-.415,0-.664-.045-.745-.137a1.512,1.512,0,0,1-.123-.806V15.593a1.341,1.341,0,0,1,.26-.995Zm29.35,3.32V16.355a4.335,4.335,0,0,1,.282-1.895,1.71,1.71,0,0,1,1.164-.723c.2-.058.3-.15.29-.275q-.03-.3-.405-.3a4.151,4.151,0,0,0-.709.087,9.345,9.345,0,0,1-1.433.087q-1.677,0-2.676-.106-.42-.039-.607-.039-.42,0-.42.268,0,.284.42.354a4.193,4.193,0,0,1,2.061.759,2.7,2.7,0,0,1,.716,1.744l.174,3.327-.015,1.953v7.161c-.009.174-.063.266-.159.275q-.087.015-.405-.347L92.726,13.606A1,1,0,0,0,92,13.187c-.125,0-.3.005-.535.014l-.232.015-.969-.029-.593-.015c-.106-.009-.183-.014-.232-.014-.212,0-.318.089-.318.268s.13.288.391.325a2.992,2.992,0,0,1,2.3,1.643,8.215,8.215,0,0,1,.8,3.946v9.845a4.548,4.548,0,0,1-.427,2.266,2.963,2.963,0,0,1-1.642,1.122q-.42.141-.405.353.029.268.405.269a4.5,4.5,0,0,0,.535-.053,8.3,8.3,0,0,1,1.071-.066l.694-.026,1.476.072q1.1.059,1.258.087a3.577,3.577,0,0,0,.434.029c.2,0,.3-.094.3-.283q0-.311-.477-.368a3.032,3.032,0,0,1-1.534-.536,2.072,2.072,0,0,1-.491-1.317l-.044-1.029.015-.608V19.278c0-.434.091-.652.274-.652a.279.279,0,0,1,.2.087l.145.159L106.6,32.819l.319.376a.5.5,0,0,0,.332.13.366.366,0,0,0,.405-.34A14.771,14.771,0,0,0,107.729,31V18.872l.029-.954Zm20.984,0V16.355a4.335,4.335,0,0,1,.282-1.895,1.71,1.71,0,0,1,1.164-.723c.2-.058.3-.15.29-.275q-.03-.3-.405-.3a4.151,4.151,0,0,0-.709.087,9.345,9.345,0,0,1-1.433.087q-1.677,0-2.676-.106-.42-.039-.607-.039-.42,0-.42.268,0,.284.42.354a4.193,4.193,0,0,1,2.061.759,2.7,2.7,0,0,1,.716,1.744l.174,3.327-.015,1.953v7.161c-.009.174-.063.266-.159.275q-.087.015-.405-.347L113.71,13.606a1,1,0,0,0-.723-.419c-.125,0-.3.005-.535.014l-.232.015-.969-.029-.593-.015c-.106-.009-.183-.014-.232-.014-.212,0-.318.089-.318.268s.13.288.391.325a2.992,2.992,0,0,1,2.3,1.643,8.215,8.215,0,0,1,.8,3.946v9.845a4.548,4.548,0,0,1-.427,2.266,2.963,2.963,0,0,1-1.642,1.122q-.42.141-.405.353.029.268.405.269a4.5,4.5,0,0,0,.535-.053,8.3,8.3,0,0,1,1.071-.066l.694-.026,1.476.072q1.1.059,1.258.087a3.577,3.577,0,0,0,.434.029c.2,0,.3-.094.3-.283q0-.311-.477-.368a3.032,3.032,0,0,1-1.534-.536,2.077,2.077,0,0,1-.492-1.317l-.043-1.029.015-.608V19.278c0-.434.091-.652.274-.652a.279.279,0,0,1,.2.087l.145.159,12.2,13.947.319.376a.5.5,0,0,0,.332.13.366.366,0,0,0,.4-.34A14.771,14.771,0,0,0,128.713,31V18.872l.029-.954Zm7.919-3.32a1.953,1.953,0,0,1,1.156-.225h2.267a14.354,14.354,0,0,1,3.076.217,1.527,1.527,0,0,1,1.112.868,2.3,2.3,0,0,1,.173.883v.376q0,.448.28.434a.33.33,0,0,0,.325-.224,5.82,5.82,0,0,0,.147-1.045l.058-.85q.072-.951.116-1.153a1.636,1.636,0,0,0,.043-.332q0-.418-.477-.418a4.331,4.331,0,0,0-.579.058q-.187.028-1.041.058l-2.055.1q-1.359.058-3.124.058a45.459,45.459,0,0,1-4.977-.232,8.672,8.672,0,0,0-.969-.072q-.651,0-.651.4c0,.18.139.269.419.269a1.942,1.942,0,0,1,1.772.718,5.767,5.767,0,0,1,.456,2.789V29.515l-.014.942q0,1.738-1.042,2.029l-.55.159q-.377.1-.376.34,0,.311.463.311a5.092,5.092,0,0,0,.752-.1A24.923,24.923,0,0,1,137,33.021q1.807,0,4.571.261.709.057,1.129.057a3.977,3.977,0,0,0,3.211-1.557,3.82,3.82,0,0,0,1.056-2.234q0-.39-.267-.375c-.108.01-.217.1-.326.26q-1.617,2.561-7.295,2.561a4.88,4.88,0,0,1-2.232-.3q-.441-.3-.441-1.536V24.82l-.014-.478a.627.627,0,0,1,.238-.58,2.064,2.064,0,0,1,.946-.144h3.191a3.309,3.309,0,0,1,1.761.347,1.9,1.9,0,0,1,.693,1.316l.086.405a.345.345,0,0,0,.37.319c.187,0,.281-.121.281-.361,0-.087-.009-.226-.029-.419q-.086-.866-.086-1.746,0-1.153.128-2.554c.011-.144.016-.25.016-.317q0-.375-.281-.39c-.2-.01-.321.106-.37.347a2.926,2.926,0,0,1-.419,1.215,1.926,1.926,0,0,1-1.013.42,13.027,13.027,0,0,1-2.4.173H137.27c-.415,0-.664-.045-.746-.137a1.522,1.522,0,0,1-.123-.806V15.593a1.346,1.346,0,0,1,.26-.995Zm14.844-.182a4.766,4.766,0,0,0-1.743,3.816,4.576,4.576,0,0,0,1.336,3.412,12.114,12.114,0,0,0,4.544,2.4,14.537,14.537,0,0,1,3.757,1.607,3.447,3.447,0,0,1,1.271,2.708,3.615,3.615,0,0,1-1.378,2.853,5.018,5.018,0,0,1-3.369,1.173,6.049,6.049,0,0,1-3.635-1.219,5.614,5.614,0,0,1-2.193-3.018c-.138-.465-.295-.7-.472-.711q-.3-.015-.295.419a7.792,7.792,0,0,0,.376,1.852q.333,1.2.362,1.317a7.047,7.047,0,0,0,.26,1.005.924.924,0,0,0,.347.369,6.208,6.208,0,0,0,1.961.738,10.671,10.671,0,0,0,2.452.318,7.391,7.391,0,0,0,5.049-1.72,5.611,5.611,0,0,0,1.967-4.424q0-3.99-5.345-5.739a35.832,35.832,0,0,1-3.446-1.26,3.848,3.848,0,0,1-1.293-1.1,3.344,3.344,0,0,1-.679-2.1,2.93,2.93,0,0,1,1.045-2.295,3.8,3.8,0,0,1,2.6-.92,6.481,6.481,0,0,1,3.555,1.016,4.864,4.864,0,0,1,2.113,2.584q.235.7.471.7.31,0,.31-.448a5.793,5.793,0,0,0-.072-.593l-.232-1.49q-.187-1.215-.188-1.461,0-.724-.362-.709a.187.187,0,0,0-.159.058l-.2.173a.543.543,0,0,1-.348.145.632.632,0,0,1-.26-.058l-1-.42A6.785,6.785,0,0,0,156,12.941a6.717,6.717,0,0,0-4.492,1.475Zm15.581,0a4.766,4.766,0,0,0-1.743,3.816,4.576,4.576,0,0,0,1.336,3.412,12.114,12.114,0,0,0,4.544,2.4,14.537,14.537,0,0,1,3.757,1.607,3.447,3.447,0,0,1,1.271,2.708,3.615,3.615,0,0,1-1.378,2.853,5.018,5.018,0,0,1-3.369,1.173,6.049,6.049,0,0,1-3.635-1.219,5.614,5.614,0,0,1-2.193-3.018c-.138-.465-.295-.7-.472-.711q-.3-.015-.3.419a7.792,7.792,0,0,0,.376,1.852q.333,1.2.362,1.317a6.9,6.9,0,0,0,.26,1.005.924.924,0,0,0,.347.369,6.208,6.208,0,0,0,1.961.738,10.671,10.671,0,0,0,2.452.318,7.391,7.391,0,0,0,5.049-1.72,5.611,5.611,0,0,0,1.967-4.424q0-3.99-5.345-5.739a35.832,35.832,0,0,1-3.446-1.26,3.848,3.848,0,0,1-1.293-1.1,3.344,3.344,0,0,1-.679-2.1,2.93,2.93,0,0,1,1.045-2.295,3.8,3.8,0,0,1,2.6-.92,6.481,6.481,0,0,1,3.555,1.016,4.864,4.864,0,0,1,2.113,2.584q.236.7.471.7.31,0,.31-.448a5.793,5.793,0,0,0-.072-.593l-.232-1.49q-.187-1.215-.188-1.461,0-.724-.362-.709a.187.187,0,0,0-.159.058l-.2.173a.543.543,0,0,1-.348.145.632.632,0,0,1-.26-.058l-1-.42a6.785,6.785,0,0,0-2.619-.448,6.717,6.717,0,0,0-4.492,1.475Zm17.586.182a1.95,1.95,0,0,1,1.156-.225H188.1a14.36,14.36,0,0,1,3.076.217,1.527,1.527,0,0,1,1.112.868,2.3,2.3,0,0,1,.173.883v.376q0,.448.28.434a.332.332,0,0,0,.325-.224,5.82,5.82,0,0,0,.147-1.045l.058-.85q.072-.951.116-1.153a1.636,1.636,0,0,0,.043-.332q0-.418-.477-.418a4.316,4.316,0,0,0-.579.058q-.187.028-1.041.058l-2.055.1q-1.359.058-3.125.058a45.452,45.452,0,0,1-4.976-.232,8.687,8.687,0,0,0-.97-.072q-.651,0-.651.4c0,.18.14.269.42.269a1.944,1.944,0,0,1,1.772.718,5.767,5.767,0,0,1,.456,2.789V29.515l-.015.942q0,1.738-1.041,2.029l-.55.159q-.376.1-.376.34,0,.311.463.311a5.109,5.109,0,0,0,.752-.1,24.916,24.916,0,0,1,3.573-.174q1.809,0,4.572.261.71.057,1.129.057a3.977,3.977,0,0,0,3.211-1.557,3.82,3.82,0,0,0,1.056-2.234q0-.39-.267-.375c-.108.01-.217.1-.326.26q-1.619,2.561-7.295,2.561a4.877,4.877,0,0,1-2.232-.3q-.441-.3-.441-1.536V24.82l-.014-.478a.627.627,0,0,1,.238-.58,2.064,2.064,0,0,1,.946-.144h3.19a3.3,3.3,0,0,1,1.761.347,1.9,1.9,0,0,1,.694,1.316l.086.405a.344.344,0,0,0,.37.319c.187,0,.281-.121.281-.361,0-.087-.01-.226-.029-.419a17.446,17.446,0,0,1-.087-1.746q0-1.153.129-2.554c.011-.144.016-.25.016-.317q0-.375-.281-.39c-.2-.01-.321.106-.37.347a2.926,2.926,0,0,1-.419,1.215,1.926,1.926,0,0,1-1.013.42,13.034,13.034,0,0,1-2.4.173H185.28c-.414,0-.663-.045-.745-.137a1.522,1.522,0,0,1-.123-.806V15.593a1.346,1.346,0,0,1,.26-.995Zm16.586,0a1.947,1.947,0,0,1,1.155-.225h2.267a14.354,14.354,0,0,1,3.076.217,1.527,1.527,0,0,1,1.112.868,2.3,2.3,0,0,1,.173.883v.376q0,.448.281.434a.329.329,0,0,0,.324-.224,5.882,5.882,0,0,0,.148-1.045l.057-.85q.074-.951.116-1.153a1.648,1.648,0,0,0,.044-.332c0-.279-.16-.418-.478-.418a4.331,4.331,0,0,0-.579.058q-.187.028-1.041.058l-2.054.1q-1.361.058-3.125.058a45.459,45.459,0,0,1-4.977-.232,8.672,8.672,0,0,0-.969-.072q-.651,0-.651.4c0,.18.139.269.419.269a1.942,1.942,0,0,1,1.772.718,5.767,5.767,0,0,1,.456,2.789V29.515l-.014.942q0,1.738-1.042,2.029l-.55.159q-.377.1-.376.34,0,.311.463.311a5.092,5.092,0,0,0,.752-.1,24.923,24.923,0,0,1,3.574-.174q1.807,0,4.571.261.709.057,1.129.057a3.975,3.975,0,0,0,3.211-1.557,3.823,3.823,0,0,0,1.057-2.234c0-.26-.09-.385-.267-.375-.109.01-.218.1-.327.26q-1.617,2.561-7.3,2.561a4.88,4.88,0,0,1-2.232-.3q-.441-.3-.44-1.536V24.82l-.015-.478a.627.627,0,0,1,.238-.58,2.064,2.064,0,0,1,.946-.144h3.191a3.309,3.309,0,0,1,1.761.347,1.9,1.9,0,0,1,.693,1.316l.086.405a.345.345,0,0,0,.37.319c.188,0,.281-.121.281-.361,0-.087-.009-.226-.028-.419a17.446,17.446,0,0,1-.087-1.746q0-1.153.128-2.554c.011-.144.016-.25.016-.317,0-.25-.093-.38-.281-.39s-.32.106-.37.347a2.926,2.926,0,0,1-.419,1.215,1.926,1.926,0,0,1-1.013.42,13.022,13.022,0,0,1-2.4.173h-2.228c-.415,0-.664-.045-.745-.137A1.512,1.512,0,0,1,201,21.43V15.593a1.341,1.341,0,0,1,.26-.995Z"/><path class="cls-1" d="M59.438,1.077A2.918,2.918,0,0,1,60.661.925a1.951,1.951,0,0,1,1.113.266,1.365,1.365,0,0,1,.519.869q.059.246.207.246.174,0,.174-.213a4.434,4.434,0,0,0-.045-.549c-.039-.275-.061-.449-.065-.522L62.532.557q-.019-.3-.374-.3c-.065,0-.209,0-.433.013q-1.7.084-3.212.083L56.945.338,55.629.325q-.465,0-.716-.019c-.1-.009-.177-.013-.22-.013a.247.247,0,0,0-.271.252l-.045.393-.077.574-.065.562a3.676,3.676,0,0,0-.064.5c-.009.133.058.2.2.2.1,0,.172-.089.219-.266l.052-.181a4.228,4.228,0,0,1,.306-.884.964.964,0,0,1,.455-.32A5.486,5.486,0,0,1,57.164.938q.549,0,.549.51V7.177l.006.3a1.378,1.378,0,0,1-.274.906,1.045,1.045,0,0,1-.778.365.535.535,0,0,0-.251.056.239.239,0,0,0-.065.186c0,.114.061.171.194.171.056,0,.159-.009.31-.026l1.425-.084q.3-.019.671-.019.162,0,.258.006l.807.052.484.019c.077,0,.131.007.161.007.133,0,.2-.051.2-.151,0-.14-.077-.217-.232-.23a1.377,1.377,0,0,1-1.116-.506A2.816,2.816,0,0,1,59.2,6.686V1.828q0-.6.242-.751ZM71.8,4.831a1.974,1.974,0,0,1,.083.764V7.012l-.006.348a2.057,2.057,0,0,1-.19,1,.834.834,0,0,1-.629.4c-.108.013-.162.066-.162.158,0,.144.069.217.207.217.069,0,.234-.016.5-.046a10.657,10.657,0,0,1,1.071-.071,12.135,12.135,0,0,1,1.4.091c.223.026.374.038.451.038.224,0,.336-.067.336-.2,0-.114-.08-.171-.239-.171a1.107,1.107,0,0,1-.958-.4,2.282,2.282,0,0,1-.294-1.318V1.517a.856.856,0,0,1,.762-.96c.124-.021.187-.081.187-.177,0-.118-.078-.177-.233-.177s-.393.015-.7.045Q72.6.332,72.359.332A8.085,8.085,0,0,1,71.127.25,3.5,3.5,0,0,0,70.7.2c-.138,0-.207.063-.207.19,0,.1.061.168.181.19l.3.058a.952.952,0,0,1,.909.994V3.022a2.478,2.478,0,0,1-.087.874c-.058.106-.218.158-.48.158H68.3q-.53,0-.623-.112a1.714,1.714,0,0,1-.093-.77V1.517a.855.855,0,0,1,.761-.96c.125-.021.187-.081.187-.177C68.533.262,68.456.2,68.3.2s-.394.015-.7.045q-.782.084-1.02.084A7.975,7.975,0,0,1,65.352.25,3.472,3.472,0,0,0,64.927.2c-.138,0-.207.063-.207.19,0,.1.06.164.181.19a2.137,2.137,0,0,1,.945.358.871.871,0,0,1,.255.693V7.01l-.007.349a2.047,2.047,0,0,1-.19,1,.834.834,0,0,1-.629.4c-.108.013-.161.066-.161.158,0,.144.068.217.206.217.069,0,.235-.016.5-.046a10.63,10.63,0,0,1,1.064-.071,12,12,0,0,1,1.4.091c.228.026.381.038.459.038.223,0,.335-.067.335-.2q0-.171-.219-.171a1.132,1.132,0,0,1-.975-.4,2.272,2.272,0,0,1-.3-1.318v-1.6a1.124,1.124,0,0,1,.106-.629q.106-.118.565-.119h3.058c.266,0,.428.044.484.132Zm7.874-3.338q0-.549.329-.652L80.44.79h.787a3,3,0,0,1,1.513.288,1.009,1.009,0,0,1,.468.93c0,.194.041.289.122.285.168-.009.252-.176.252-.5q0-.246-.052-.807c-.025-.254-.038-.43-.038-.529,0-.142-.063-.213-.187-.213a.643.643,0,0,0-.091.007q-.49.057-2.6.058L78.169.28,77.517.254c-.133,0-.238,0-.316-.006-.1-.009-.163-.013-.193-.013-.142,0-.213.05-.213.151a.178.178,0,0,0,.174.191,1.68,1.68,0,0,1,.978.36,1.5,1.5,0,0,1,.235.98V7.025a4.782,4.782,0,0,1-.071.927,1.294,1.294,0,0,1-.21.564,1.24,1.24,0,0,1-.5.3c-.1.04-.146.1-.142.178a.147.147,0,0,0,.168.145c.078,0,.2-.006.381-.019q.961-.058,1.432-.058.7,0,1.116.038l.749.071a8.863,8.863,0,0,0,.916.052,2.5,2.5,0,0,0,1.129-.217,1.718,1.718,0,0,0,.709-.721A2.438,2.438,0,0,0,84.2,7.055a.189.189,0,0,0-.054-.139.127.127,0,0,0-.12-.042c-.021,0-.047.032-.077.083q-.807,1.594-3.426,1.594a.808.808,0,0,1-.458-.1.821.821,0,0,1-.258-.393,4.27,4.27,0,0,1-.142-1.307v-.58a9.424,9.424,0,0,1,.039-1.018.589.589,0,0,1,.151-.377.693.693,0,0,1,.423-.093h.438a5.931,5.931,0,0,1,.907.045.812.812,0,0,1,.41.2,1.389,1.389,0,0,1,.387.832c.025.172.092.254.2.246a.132.132,0,0,0,.1-.046.262.262,0,0,0,.019-.123l-.006-.329q0-.369-.039-.867-.058-.762-.058-.969c0-.078,0-.173.013-.285.013-.155.019-.25.019-.284,0-.121-.047-.179-.142-.175a.211.211,0,0,0-.193.123l-.149.316a1.078,1.078,0,0,1-.987.7h-.548l-.284.006-.193.007c-.224,0-.365-.054-.423-.161a2.014,2.014,0,0,1-.087-.762v-1.4l.006-.264ZM97.979.36c0,.127.084.191.251.191a1.239,1.239,0,0,1,.91.332,1.381,1.381,0,0,1,.374.932l.033,1.323v.523A13.142,13.142,0,0,1,99.33,6.4,2.827,2.827,0,0,1,98.6,7.854a2.791,2.791,0,0,1-2.013.736,2.846,2.846,0,0,1-2-.716,2.231,2.231,0,0,1-.68-1.133,10.344,10.344,0,0,1-.165-2.222l-.013-1.142.1-1.626A1.97,1.97,0,0,1,94,.909a.766.766,0,0,1,.529-.294.718.718,0,0,0,.245-.078.169.169,0,0,0,.052-.144c0-.127-.112-.19-.335-.19-.09,0-.238.008-.444.025Q93.279.3,92.647.3,92.2.3,91.385.222C91.256.209,91.168.2,91.12.2c-.146,0-.219.057-.219.17s.084.171.252.2a2.547,2.547,0,0,1,.71.207.718.718,0,0,1,.358.309,1.556,1.556,0,0,1,.087.619l.019,1.173-.071,2.5q0,2.431,1.233,3.275a4.5,4.5,0,0,0,2.554.619,3.637,3.637,0,0,0,3.3-1.5,4.56,4.56,0,0,0,.59-1.76,19.6,19.6,0,0,0,.184-3l.013-.793-.007-.561q0-.993.5-1.077l.246-.045c.107-.017.161-.07.161-.158A.153.153,0,0,0,100.862.2a1.864,1.864,0,0,0-.213.013c-.164.022-.353.041-.569.058l-.634.026L98.761.261c-.267-.013-.437-.026-.511-.039A.425.425,0,0,0,98.1.2c-.082,0-.123.057-.123.157Zm8.708,1-.444-.523a4.478,4.478,0,0,0-.49-.532.512.512,0,0,0-.315-.087c-.095,0-.213.006-.356.019A10.715,10.715,0,0,1,104,.3l-.272.007-.446-.02c-.147,0-.22.062-.22.184,0,.1.067.156.2.165q1.464.1,1.464,2.085V5.514l-.045,1.531a2.727,2.727,0,0,1-.216,1.214,1.067,1.067,0,0,1-.687.556c-.125.036-.187.1-.187.184,0,.106.058.158.174.158a2.258,2.258,0,0,0,.33-.037,6.645,6.645,0,0,1,1.164-.092,7.376,7.376,0,0,1,1.2.091,1.943,1.943,0,0,0,.252.025.175.175,0,0,0,.2-.2c0-.1-.064-.152-.193-.165q-1.045-.1-1.258-.818a11.409,11.409,0,0,1-.2-2.682v-2.5l.006-.187c0-.194.052-.29.155-.29.039,0,.109.056.213.168L111.507,9a.365.365,0,0,0,.238.142c.087,0,.131-.054.131-.174l-.027-.806-.006-.49.006-.715.027-.555.091-4.029V2.053q0-1.321.832-1.476c.138-.022.207-.088.207-.2S112.937.2,112.8.2c-.039,0-.1,0-.188.013A12.617,12.617,0,0,1,111.2.332a4.987,4.987,0,0,1-.556-.039,6.887,6.887,0,0,0-.75-.065c-.125,0-.187.057-.187.172,0,.092.071.142.212.151a1.393,1.393,0,0,1,1.2.6,4.626,4.626,0,0,1,.306,2.05q0,1.289-.058,2.713c-.008.262-.058.393-.148.393s-.294-.164-.586-.491l-.218-.245L107,1.738q-.051-.064-.315-.374Zm11.456.238a1.372,1.372,0,0,1,.132-.735.929.929,0,0,1,.6-.258.277.277,0,0,0,.161-.059.271.271,0,0,0,.032-.158c0-.105-.071-.157-.213-.157q-.354,0-1.019.049l-.471.037q-.535.043-.9.043a4.024,4.024,0,0,1-.781-.052,2.728,2.728,0,0,0-.348-.051c-.1-.005-.155.054-.155.176a.171.171,0,0,0,.094.167,1.68,1.68,0,0,0,.422.1,1.177,1.177,0,0,1,.755.335,1.337,1.337,0,0,1,.207.843V7.018l-.007.574a1.585,1.585,0,0,1-.151.8,1.178,1.178,0,0,1-.616.409l-.188.151.013.052a.172.172,0,0,0,.181.138,2.808,2.808,0,0,0,.464-.061,6.033,6.033,0,0,1,1.02-.068,12.714,12.714,0,0,1,1.361.095c.224.023.4.034.516.034q.42,0,.42-.19c0-.131-.106-.2-.317-.2a1.142,1.142,0,0,1-.783-.264,1.228,1.228,0,0,1-.378-.761l-.051-.644V1.6Zm6.079-.445A.511.511,0,0,1,124.7.6c.181-.035.271-.1.271-.2a.158.158,0,0,0-.18-.177c-.086,0-.273.009-.561.026l-.676.032L122.471.248a6.581,6.581,0,0,1-.766-.039C121.61.2,121.546.2,121.512.2a.159.159,0,0,0-.181.177c0,.109.087.182.258.217a1.116,1.116,0,0,1,.713.477,8.49,8.49,0,0,1,.707,1.566q.373,1.012.935,2.289l1.529,3.468.162.394.148.328c.048.1.113.155.2.155.122,0,.224-.1.307-.29q.045-.11.394-.825.045-.084.58-1.277l1.1-2.43.961-2.224A7.728,7.728,0,0,1,130,.922a.963.963,0,0,1,.61-.384c.129-.026.193-.09.193-.19s-.038-.165-.116-.165a1.847,1.847,0,0,0-.257.026,5.8,5.8,0,0,1-1.017.077q-.194,0-.651-.025l-.676-.039c-.185-.009-.305-.013-.36-.013-.108,0-.161.051-.161.151s.075.161.225.178a1.5,1.5,0,0,1,.8.332.844.844,0,0,1,.28.654,6.549,6.549,0,0,1-.718,2.288L126.7,7.035c-.056.125-.108.185-.155.18s-.11-.083-.175-.238l-1.44-3.526a7.869,7.869,0,0,1-.706-2.294Zm11.092.336q0-.549.329-.652l.439-.051h.787a3,3,0,0,1,1.513.288,1.009,1.009,0,0,1,.468.93c0,.194.04.289.122.285.168-.009.252-.176.252-.5q0-.246-.052-.807c-.026-.254-.038-.43-.038-.529,0-.142-.063-.213-.188-.213a.631.631,0,0,0-.09.007q-.49.057-2.6.058L133.811.28l-.652-.026c-.133,0-.238,0-.316-.006-.1-.009-.163-.013-.193-.013-.142,0-.213.05-.213.151a.178.178,0,0,0,.174.191,1.673,1.673,0,0,1,.977.36,1.493,1.493,0,0,1,.236.98V7.025a4.782,4.782,0,0,1-.071.927,1.294,1.294,0,0,1-.21.564,1.24,1.24,0,0,1-.5.3c-.1.04-.146.1-.142.178a.147.147,0,0,0,.168.145c.077,0,.2-.006.381-.019q.96-.058,1.432-.058.7,0,1.116.038l.748.071a8.9,8.9,0,0,0,.917.052,2.5,2.5,0,0,0,1.129-.217,1.718,1.718,0,0,0,.709-.721,2.438,2.438,0,0,0,.342-1.229.186.186,0,0,0-.055-.139.124.124,0,0,0-.119-.042c-.022,0-.047.032-.077.083q-.807,1.594-3.426,1.594a.808.808,0,0,1-.458-.1.821.821,0,0,1-.258-.393,4.27,4.27,0,0,1-.142-1.307v-.58a9.764,9.764,0,0,1,.038-1.018.594.594,0,0,1,.152-.377.693.693,0,0,1,.423-.093h.438a5.94,5.94,0,0,1,.907.045.812.812,0,0,1,.41.2,1.389,1.389,0,0,1,.387.832c.025.172.092.254.2.246a.132.132,0,0,0,.1-.046.262.262,0,0,0,.019-.123l-.006-.329q0-.369-.039-.867-.059-.762-.058-.969c0-.078,0-.173.013-.285.013-.155.019-.25.019-.284,0-.121-.047-.179-.142-.175a.21.21,0,0,0-.193.123l-.149.316a1.078,1.078,0,0,1-.987.7h-.548l-.284.006-.194.007c-.223,0-.364-.054-.422-.161a2.014,2.014,0,0,1-.087-.762v-1.4l.006-.264Zm9.315,3.78c0-.172.032-.275.1-.309l.29-.052h.4a1.139,1.139,0,0,1,.736.191,3.093,3.093,0,0,1,.573.906,13.09,13.09,0,0,0,1.455,2.465,1.609,1.609,0,0,0,1.223.651,2.315,2.315,0,0,0,.937-.239q.528-.238.528-.425c0-.1-.039-.148-.117-.148a.578.578,0,0,0-.141.019,1.435,1.435,0,0,1-.278.026.934.934,0,0,1-.629-.232,3.3,3.3,0,0,1-.609-.832l-.665-1.18L147.855,5.1q-.117-.213-.174-.3a.365.365,0,0,1-.065-.155q-.006-.077.123-.129a2.242,2.242,0,0,0,.984-.794,2.015,2.015,0,0,0,.358-1.162,2.093,2.093,0,0,0-.807-1.682A3.076,3.076,0,0,0,146.242.2c-.275,0-.777.028-1.5.083q-.93.072-1.581.071a10.713,10.713,0,0,1-1.09-.051,2.244,2.244,0,0,0-.233-.02.161.161,0,0,0-.18.184c0,.122.088.2.264.223a1.432,1.432,0,0,1,1.033.521,1.906,1.906,0,0,1,.193,1.036V6.91l-.006.251v.612a1.179,1.179,0,0,1-.168.7,1.144,1.144,0,0,1-.607.364.172.172,0,0,0-.129.184c0,.118.078.177.233.177.047,0,.131-.006.251-.018l.433-.037.542-.049q.335-.026.767-.025.516,0,1.071.045c.129.013.217.02.265.02.146,0,.219-.062.219-.184s-.09-.192-.271-.21a1.026,1.026,0,0,1-.89-.5,4.068,4.068,0,0,1-.226-1.659V5.273Zm.165-4.4a.794.794,0,0,1,.6-.184,2.178,2.178,0,0,1,2.257,2.246,1.5,1.5,0,0,1-.472,1.174.978.978,0,0,1-.514.261,13.616,13.616,0,0,1-1.426.042.761.761,0,0,1-.507-.11.826.826,0,0,1-.107-.522V1.544a1.03,1.03,0,0,1,.165-.674Zm8.838-.041a2.46,2.46,0,0,0-.693,1.782,2.108,2.108,0,0,0,.5,1.468,5.823,5.823,0,0,0,1.886,1.172l.982.438a2.472,2.472,0,0,1,.927.618,1.275,1.275,0,0,1,.268.836,1.552,1.552,0,0,1-.513,1.142,1.632,1.632,0,0,1-1.166.5A2.337,2.337,0,0,1,154.2,8.03a4.1,4.1,0,0,1-1.1-1.86c-.025-.1-.068-.155-.129-.155-.133,0-.2.1-.2.31a5.766,5.766,0,0,0,.246,1.123,5.812,5.812,0,0,1,.193.877.774.774,0,0,0,.081.332.786.786,0,0,0,.345.113q.213.045.664.194a5.41,5.41,0,0,0,1.413.3,2.576,2.576,0,0,0,1.9-.833,2.711,2.711,0,0,0,.812-1.955,2.674,2.674,0,0,0-.587-1.743,5.353,5.353,0,0,0-2.029-1.226,6.629,6.629,0,0,1-1.531-.755A1.133,1.133,0,0,1,153.9,1.9a1.214,1.214,0,0,1,.433-.926,1.466,1.466,0,0,1,1.015-.392,2.412,2.412,0,0,1,1.6.657,2.775,2.775,0,0,1,.943,1.557c.034.163.09.244.168.244.107,0,.161-.092.161-.277a.757.757,0,0,0-.013-.129l-.064-.587-.084-.633a1.9,1.9,0,0,1-.013-.232l.013-.522c0-.142-.045-.213-.136-.213a.219.219,0,0,0-.1.026L157.577.6a.445.445,0,0,1-.187.045,1.3,1.3,0,0,1-.413-.116l-.432-.181a3.187,3.187,0,0,0-1.187-.232,2.305,2.305,0,0,0-1.726.717Zm9.889.773a1.372,1.372,0,0,1,.132-.735.929.929,0,0,1,.6-.258.273.273,0,0,0,.161-.059.262.262,0,0,0,.033-.158c0-.105-.071-.157-.213-.157q-.356,0-1.019.049l-.471.037c-.358.029-.656.043-.9.043a4.017,4.017,0,0,1-.781-.052,2.778,2.778,0,0,0-.348-.051c-.1-.005-.155.054-.155.176a.172.172,0,0,0,.093.167,1.7,1.7,0,0,0,.423.1,1.18,1.18,0,0,1,.755.335,1.344,1.344,0,0,1,.206.843V7.018l-.006.574a1.583,1.583,0,0,1-.152.8,1.17,1.17,0,0,1-.616.409l-.187.151.013.052a.172.172,0,0,0,.181.138,2.821,2.821,0,0,0,.464-.061,6.012,6.012,0,0,1,1.019-.068,12.713,12.713,0,0,1,1.362.095c.223.023.395.034.516.034q.418,0,.419-.19c0-.131-.105-.2-.316-.2a1.143,1.143,0,0,1-.784-.264,1.222,1.222,0,0,1-.377-.761l-.052-.644V1.6Zm8.43-.525a2.909,2.909,0,0,1,1.222-.152,1.951,1.951,0,0,1,1.113.266,1.365,1.365,0,0,1,.519.869q.058.246.207.246.174,0,.174-.213a4.434,4.434,0,0,0-.045-.549c-.039-.275-.06-.449-.065-.522l-.032-.465q-.02-.3-.374-.3c-.065,0-.209,0-.432.013q-1.7.084-3.213.083L169.457.338,168.141.325c-.31,0-.548-.006-.716-.019-.1-.009-.177-.013-.22-.013a.247.247,0,0,0-.271.252l-.045.393-.077.574-.065.562a3.843,3.843,0,0,0-.064.5c-.009.133.058.2.2.2.1,0,.172-.089.219-.266l.052-.181a4.228,4.228,0,0,1,.306-.884.964.964,0,0,1,.455-.32,5.486,5.486,0,0,1,1.761-.188q.549,0,.549.51V7.177l.006.3a1.378,1.378,0,0,1-.274.906,1.044,1.044,0,0,1-.777.365.544.544,0,0,0-.252.056.235.235,0,0,0-.064.186c0,.114.06.171.193.171.056,0,.159-.009.31-.026l1.426-.084q.3-.019.671-.019.161,0,.258.006l.806.052.484.019c.077,0,.131.007.161.007.133,0,.2-.051.2-.151,0-.14-.077-.217-.232-.23a1.379,1.379,0,0,1-1.116-.506,2.817,2.817,0,0,1-.316-1.546V1.828c0-.4.08-.65.242-.751ZM182.117,5.2a1.065,1.065,0,0,1,.164-.322q.684-1.077,1.5-2.656a5.726,5.726,0,0,1,.758-1.2,1.547,1.547,0,0,1,.784-.432c.155-.035.233-.1.233-.191s-.059-.151-.175-.151c-.2,0-.373,0-.511.013l-.543.032c-.172.013-.329.019-.472.019a5.171,5.171,0,0,1-.646-.032l-.427-.058A2.549,2.549,0,0,0,182.456.2c-.113,0-.168.068-.168.2,0,.088.068.14.206.158a1.4,1.4,0,0,1,.723.277.658.658,0,0,1,.316.509,5.265,5.265,0,0,1-.707,1.6q-.346.618-.43.786-.334.657-.54.657c-.137,0-.279-.151-.426-.451q-.07-.155-.381-.747l-.5-.979a3.731,3.731,0,0,1-.471-1.185c0-.224.165-.367.5-.432.147-.03.22-.092.22-.184,0-.109-.09-.164-.271-.164-.09,0-.268.013-.534.038a9.887,9.887,0,0,1-1.063.058,11.381,11.381,0,0,1-1.262-.077,4.934,4.934,0,0,0-.5-.039q-.18,0-.18.2c0,.109.079.17.239.183Q178,.693,178.591,1.8l.98,1.842q.407.773.742,1.327a1.711,1.711,0,0,1,.284.9V7.1a2.13,2.13,0,0,1-.255,1.211,1.45,1.45,0,0,1-.977.463c-.12.018-.181.066-.181.145,0,.144.05.217.149.217a2.623,2.623,0,0,0,.386-.046,11.411,11.411,0,0,1,1.6-.071c.335,0,.586.01.754.028l.915.081a2.894,2.894,0,0,0,.335.02c.193,0,.29-.063.29-.19s-.069-.175-.207-.184q-1.181-.064-1.29-.793l-.032-.438v-1.9a2.161,2.161,0,0,1,.029-.438ZM195.081.49a4.128,4.128,0,0,0-2.448,2.537,5.068,5.068,0,0,0-.316,1.747,4.367,4.367,0,0,0,1.251,3.27,4.579,4.579,0,0,0,3.342,1.223,4.346,4.346,0,0,0,3.432-1.407,5.1,5.1,0,0,0,1.278-3.513,4.039,4.039,0,0,0-1.239-3.076A4.539,4.539,0,0,0,197.13.1a5.414,5.414,0,0,0-2.049.391Zm3.687.932a3.966,3.966,0,0,1,.981,1.532,5.511,5.511,0,0,1,.368,1.978,4.532,4.532,0,0,1-.794,2.8,2.52,2.52,0,0,1-2.116,1.048,2.813,2.813,0,0,1-2.381-1.268,5.494,5.494,0,0,1-.916-3.293,4.347,4.347,0,0,1,.729-2.678,2.4,2.4,0,0,1,2.026-.961,2.964,2.964,0,0,1,2.1.839Zm7.641.019a.664.664,0,0,1,.145-.487.743.743,0,0,1,.513-.139l.265-.006.839.006q1.439,0,1.7.848a.731.731,0,0,1,.032.225v.219c0,.12.045.179.136.179.163,0,.245-.176.245-.53a2.025,2.025,0,0,0-.02-.253l-.064-.491c0-.044-.017-.2-.039-.473Q210.145.2,209.99.2c-.108,0-.273.009-.5.027q-.909.075-1.781.075l-1.7.006-1.11.021q-.432,0-.819-.033C203.91.286,203.8.28,203.751.28c-.146,0-.219.064-.219.191,0,.1.056.149.168.157a1.513,1.513,0,0,1,.941.316A1.408,1.408,0,0,1,204.925,2V7.3a3.058,3.058,0,0,1-.135,1.088.807.807,0,0,1-.523.445c-.12.039-.18.1-.18.184q0,.171.213.171a5.851,5.851,0,0,0,.632-.065,6.6,6.6,0,0,1,.832-.045h.716q.7,0,.936.026a3.193,3.193,0,0,0,.374.032c.094,0,.142-.059.142-.177s-.069-.165-.207-.178a1.318,1.318,0,0,1-.98-.38,2.324,2.324,0,0,1-.336-1.4v-.76l-.006-.515q0-.806.148-.928a2.629,2.629,0,0,1,1.116-.123,1.792,1.792,0,0,1,1.058.233,1.459,1.459,0,0,1,.433.909c.021.121.073.179.154.175.117-.009.175-.058.175-.148,0-.056,0-.148-.013-.277l-.1-1.217q-.039-.5-.039-.876c0-.077,0-.143.007-.2.008-.082.013-.137.013-.168,0-.111-.065-.167-.194-.167-.056,0-.1.05-.142.148a2.084,2.084,0,0,1-.484.807,1.093,1.093,0,0,1-.722.206l-.7.007-.245.006a.44.44,0,0,1-.364-.122.856.856,0,0,1-.094-.484V1.441Z"/><path class="cls-1" d="M57.887,39.912a2.187,2.187,0,0,1,.136-.971,1.142,1.142,0,0,1,.69-.371c.107-.027.161-.079.161-.158,0-.119-.062-.176-.187-.171-.077,0-.172.012-.284.025a12.953,12.953,0,0,1-1.361.065,15.059,15.059,0,0,1-1.555-.071,2.675,2.675,0,0,0-.322-.019c-.121,0-.181.05-.181.15a.333.333,0,0,0,.035.191.356.356,0,0,0,.191.058,1.711,1.711,0,0,1,.771.232.9.9,0,0,1,.364.529l.058.367-.006.251v5.172a2.68,2.68,0,0,1-.178,1.157.81.81,0,0,1-.642.409c-.111.022-.167.075-.167.159,0,.126.084.189.251.189s.39-.013.665-.039Q56.971,47,57.694,47a5.551,5.551,0,0,1,.89.058,2.642,2.642,0,0,0,.406.051c.142,0,.213-.065.213-.2,0-.114-.118-.18-.355-.2a.841.841,0,0,1-.751-.48,3.651,3.651,0,0,1-.216-1.484v-.277a4,4,0,0,1,.042-.737.734.734,0,0,1,.209-.345l.278-.271.193-.187a.32.32,0,0,1,.194-.116q.116,0,.3.3.206.355,1.083,1.519t1.433,1.829l.244.3a.777.777,0,0,0,.606.335c.064,0,.236-.017.515-.052a3.831,3.831,0,0,1,.431-.025q.438,0,1.069.064a1.659,1.659,0,0,0,.187.013c.128,0,.195-.052.2-.157a.191.191,0,0,0-.155-.21l-.135-.039a3.182,3.182,0,0,1-1.439-.773,30.391,30.391,0,0,1-2.34-2.951l-.466-.631a1.317,1.317,0,0,1-.291-.56q0-.219.544-.677.182-.154.673-.618a17.1,17.1,0,0,1,1.635-1.4,2.546,2.546,0,0,1,1.026-.477c.189-.03.284-.094.284-.19,0-.127-.076-.19-.226-.19a9.108,9.108,0,0,0-.918.077,4.841,4.841,0,0,1-.511.032q-.278,0-.97-.077a4.592,4.592,0,0,0-.543-.032c-.159,0-.239.054-.239.164s.069.178.207.178a.763.763,0,0,1,.445.116.358.358,0,0,1,.168.309q0,.581-1.778,2.175l-.9.8-.632.567a.945.945,0,0,1-.309.194c-.073,0-.109-.086-.109-.245V40.144l.006-.232Zm11.6-.568-.444-.523a4.509,4.509,0,0,0-.489-.532.517.517,0,0,0-.316-.087c-.095,0-.213.006-.356.019a10.715,10.715,0,0,1-1.08.058l-.272.007-.446-.02c-.147,0-.22.062-.22.184,0,.1.067.156.2.165q1.464.1,1.465,2.085v2.793l-.046,1.532a2.727,2.727,0,0,1-.216,1.214,1.067,1.067,0,0,1-.687.556c-.125.035-.187.1-.187.184,0,.106.058.158.174.158a2.258,2.258,0,0,0,.33-.037,6.645,6.645,0,0,1,1.164-.092,7.266,7.266,0,0,1,1.2.091,1.943,1.943,0,0,0,.252.025.176.176,0,0,0,.2-.2c0-.1-.065-.151-.194-.164q-1.046-.1-1.258-.818a11.472,11.472,0,0,1-.2-2.682v-2.5l.006-.187c0-.194.052-.29.155-.29.039,0,.11.056.213.167l5.869,6.523a.365.365,0,0,0,.238.142c.087,0,.131-.054.131-.174l-.026-.806-.007-.49.007-.716.026-.554.091-4.029v-.316q0-1.322.832-1.476c.138-.022.207-.088.207-.2s-.069-.184-.207-.184c-.039,0-.1,0-.188.013a12.555,12.555,0,0,1-1.415.122,4.952,4.952,0,0,1-.556-.038,6.887,6.887,0,0,0-.75-.065c-.125,0-.187.057-.187.171,0,.093.071.143.213.152a1.392,1.392,0,0,1,1.2.6,4.626,4.626,0,0,1,.306,2.05q0,1.289-.058,2.712c-.008.263-.058.394-.148.394s-.294-.164-.586-.491l-.218-.245L69.8,39.718q-.052-.065-.316-.374Zm10.608-.874a4.128,4.128,0,0,0-2.448,2.537,5.067,5.067,0,0,0-.316,1.746,4.367,4.367,0,0,0,1.251,3.271,4.579,4.579,0,0,0,3.342,1.223,4.346,4.346,0,0,0,3.432-1.407,5.1,5.1,0,0,0,1.278-3.513,4.039,4.039,0,0,0-1.239-3.076,4.539,4.539,0,0,0-3.251-1.172,5.4,5.4,0,0,0-2.049.391Zm3.687.932a3.966,3.966,0,0,1,.981,1.532,5.511,5.511,0,0,1,.368,1.978,4.534,4.534,0,0,1-.794,2.8,2.52,2.52,0,0,1-2.116,1.048A2.815,2.815,0,0,1,79.838,45.5a5.5,5.5,0,0,1-.916-3.293,4.347,4.347,0,0,1,.729-2.678,2.4,2.4,0,0,1,2.026-.961,2.964,2.964,0,0,1,2.1.839Zm9.667-1q-.013.171.219.2l.291.045q.535.071.535.5a.814.814,0,0,1-.133.438,8.569,8.569,0,0,1-.663.824l-.672.8-.3.348a.32.32,0,0,1-.168.122c-.074.005-.177-.09-.311-.283l-.467-.676-.447-.612a2.727,2.727,0,0,1-.473-1.07.365.365,0,0,1,.142-.3.686.686,0,0,1,.381-.174c.154-.018.232-.086.232-.2s-.067-.171-.2-.171c-.1,0-.232.009-.412.026l-.6.065a7.827,7.827,0,0,1-.838.038q-.508,0-1.565-.077c-.168-.013-.288-.019-.361-.019-.137,0-.206.063-.206.19s.082.186.245.216a1.874,1.874,0,0,1,.981.483,21.2,21.2,0,0,1,1.579,2.049q.424.6.74,1.011a2.491,2.491,0,0,1,.484.766c0,.091-.159.307-.477.651q-.317.334-1.056,1.224a11.566,11.566,0,0,1-1.348,1.436,2.3,2.3,0,0,1-1,.516c-.116.026-.171.083-.167.171a.124.124,0,0,0,.058.112l.174.033.291-.013.575-.02c.246-.012.442-.019.589-.019q.787,0,1.57.078c.116.012.2.019.246.019q.135,0,.135-.165c0-.109-.071-.168-.212-.177-.671-.052-1.007-.253-1.007-.606q0-.489,1.471-2.157c.154-.181.287-.333.4-.458.068-.077.12-.116.154-.116s.073.039.129.116l.325.419q.822,1.064,1.14,1.559a1.629,1.629,0,0,1,.318.728c0,.3-.175.457-.523.483-.159.013-.239.081-.239.2,0,.1.073.158.219.158.108,0,.282-.006.522-.019l.709-.046c.18-.012.369-.019.567-.019.287,0,.627.015,1.017.045l.812.065c.12.008.215.013.284.013.154,0,.232-.059.232-.177s-.076-.2-.226-.217a1.812,1.812,0,0,1-1.181-.515,17.2,17.2,0,0,1-1.811-2.261q-.671-.966-.845-1.185a1.746,1.746,0,0,1-.373-.593c0-.073.1-.214.29-.425q.07-.077.844-1a13.31,13.31,0,0,1,1.869-1.9,1.845,1.845,0,0,1,.858-.315q.213-.033.213-.2t-.18-.171c-.107,0-.243.007-.406.02l-.792.058q-.309.02-.586.019-.528,0-1.14-.045c-.107-.008-.184-.013-.232-.013q-.206,0-.225.177Zm8.069.739a.513.513,0,0,1,.478-.555c.18-.035.271-.1.271-.2a.158.158,0,0,0-.181-.177c-.086,0-.272.008-.56.026l-.676.032-1.082-.032A6.6,6.6,0,0,1,99,38.189c-.094-.009-.158-.013-.193-.013a.158.158,0,0,0-.18.177c0,.109.086.182.258.217a1.116,1.116,0,0,1,.713.477,8.475,8.475,0,0,1,.706,1.566q.375,1.012.936,2.289l1.529,3.468.161.394.149.328a.219.219,0,0,0,.2.155c.122,0,.224-.1.307-.29q.045-.11.393-.825.045-.084.581-1.277l1.1-2.43.961-2.224a7.786,7.786,0,0,1,.675-1.3.963.963,0,0,1,.609-.384c.129-.026.194-.09.194-.191s-.039-.164-.116-.164a1.872,1.872,0,0,0-.258.026,5.788,5.788,0,0,1-1.017.077c-.129,0-.345-.008-.65-.025l-.676-.039c-.185-.009-.3-.013-.361-.013-.107,0-.161.05-.161.151s.075.16.226.178a1.5,1.5,0,0,1,.8.332.845.845,0,0,1,.281.654,6.563,6.563,0,0,1-.719,2.288l-1.456,3.223c-.056.125-.108.185-.155.18s-.111-.083-.175-.238l-1.44-3.526a7.883,7.883,0,0,1-.707-2.294Zm11,.445a1.372,1.372,0,0,1,.132-.735.918.918,0,0,1,.6-.258.277.277,0,0,0,.161-.059.271.271,0,0,0,.032-.158c0-.1-.071-.157-.213-.157q-.354,0-1.019.049l-.471.037c-.357.028-.656.043-.9.043a4,4,0,0,1-.78-.052,2.762,2.762,0,0,0-.349-.051c-.1-.005-.155.054-.155.176a.171.171,0,0,0,.094.167,1.68,1.68,0,0,0,.422.1,1.172,1.172,0,0,1,.755.335,1.335,1.335,0,0,1,.207.843V45l-.007.573a1.579,1.579,0,0,1-.151.8,1.163,1.163,0,0,1-.616.409l-.188.152.013.052a.172.172,0,0,0,.181.138,2.808,2.808,0,0,0,.464-.061A6.033,6.033,0,0,1,111.75,47a12.714,12.714,0,0,1,1.361.1c.224.023.4.034.516.034q.42,0,.42-.19c0-.131-.106-.2-.317-.2a1.142,1.142,0,0,1-.783-.264,1.228,1.228,0,0,1-.378-.761l-.051-.644V39.582Zm6.307-.117q0-.85.651-.9c.185-.009.278-.066.278-.171,0-.123-.13-.184-.388-.184a10.211,10.211,0,0,0-1.028.051,9.729,9.729,0,0,1-.988.078q-.195,0-.588-.039l-.278-.019c-.108-.013-.192-.022-.252-.026a1.289,1.289,0,0,0-.188-.019.172.172,0,0,0-.194.2c0,.105.082.171.246.2l.387.064q.858.137.858,1.165v5.381a2.714,2.714,0,0,1-.158,1.085.845.845,0,0,1-.571.447c-.112.031-.168.086-.168.164,0,.114.062.171.187.171.06,0,.179-.01.355-.03a14.225,14.225,0,0,1,1.613-.1q.451,0,.806.02l.7.032.774.045c.3.022.5.032.613.032a1.58,1.58,0,0,0,1.283-.567,2.233,2.233,0,0,0,.536-1.465c0-.176-.039-.264-.118-.264-.048,0-.166.13-.353.392a3.54,3.54,0,0,1-3.1,1.285,1.557,1.557,0,0,1-.63-.084q-.29-.147-.289-1.352V39.465Zm8.877,0q0-.85.651-.9c.185-.009.278-.066.278-.171,0-.123-.13-.184-.388-.184a10.211,10.211,0,0,0-1.028.051,9.729,9.729,0,0,1-.988.078q-.2,0-.588-.039l-.278-.019c-.108-.013-.192-.022-.252-.026a1.289,1.289,0,0,0-.188-.019.172.172,0,0,0-.194.2c0,.105.082.171.246.2l.387.064q.858.137.858,1.165v5.381a2.714,2.714,0,0,1-.158,1.085.845.845,0,0,1-.571.447c-.112.031-.168.086-.168.164,0,.114.062.171.187.171.06,0,.178-.01.355-.03a14.225,14.225,0,0,1,1.613-.1q.452,0,.806.02l.7.032.775.045c.3.022.5.032.612.032a1.581,1.581,0,0,0,1.284-.567,2.233,2.233,0,0,0,.536-1.465c0-.176-.039-.264-.118-.264-.048,0-.166.13-.353.392a3.54,3.54,0,0,1-3.1,1.285,1.557,1.557,0,0,1-.63-.084q-.289-.147-.289-1.352V39.465Zm8.877.008c0-.366.109-.583.329-.652l.438-.051h.787a3,3,0,0,1,1.513.288,1.009,1.009,0,0,1,.468.93q0,.291.123.285.251-.014.251-.5,0-.246-.051-.807c-.026-.254-.039-.43-.039-.529,0-.142-.063-.213-.187-.213a.643.643,0,0,0-.091.007q-.49.057-2.6.058l-2.445-.026-.651-.026c-.134,0-.239,0-.316-.006-.1-.009-.164-.013-.194-.013-.142,0-.213.05-.213.151a.178.178,0,0,0,.174.191,1.67,1.67,0,0,1,.978.36,1.492,1.492,0,0,1,.235.979v5.109a4.711,4.711,0,0,1-.071.927,1.283,1.283,0,0,1-.209.564,1.247,1.247,0,0,1-.5.3c-.1.04-.147.1-.142.178a.146.146,0,0,0,.167.145c.078,0,.205-.007.381-.019q.962-.058,1.432-.059.7,0,1.116.039l.749.071a8.879,8.879,0,0,0,.916.052,2.493,2.493,0,0,0,1.129-.217,1.726,1.726,0,0,0,.71-.721,2.438,2.438,0,0,0,.342-1.229.19.19,0,0,0-.055-.139.13.13,0,0,0-.12-.043c-.021,0-.047.033-.077.084q-.807,1.595-3.426,1.594a.81.81,0,0,1-.458-.1.821.821,0,0,1-.258-.393,4.273,4.273,0,0,1-.142-1.308v-.579a9.424,9.424,0,0,1,.039-1.018.594.594,0,0,1,.151-.377.7.7,0,0,1,.423-.093h.439a5.915,5.915,0,0,1,.906.045.812.812,0,0,1,.41.2,1.389,1.389,0,0,1,.387.832c.026.172.092.254.2.245a.129.129,0,0,0,.1-.045.259.259,0,0,0,.02-.123l-.007-.329q0-.369-.039-.867c-.038-.508-.058-.832-.058-.969,0-.078,0-.173.013-.285.013-.155.019-.25.019-.284,0-.121-.047-.179-.141-.175a.212.212,0,0,0-.194.123l-.148.316a1.08,1.08,0,0,1-.987.7h-.549l-.284.006-.193.007c-.224,0-.365-.054-.423-.161a2.014,2.014,0,0,1-.087-.762v-1.4l.007-.264Z"/><polygon class="cls-3" points="47.056 47 47.056 0 0.057 0 0.057 47 47.056 47 47.056 47"/><path class="cls-4" d="M41.124,5.928V17.786H36.732c0-2.183-2.162-3.952-4.83-3.952A4.982,4.982,0,0,0,27.51,16.14V30.961a5.6,5.6,0,0,0,5.476,5.709H33v4.392H14.114V36.67h.013A5.6,5.6,0,0,0,19.6,30.961V16.14a4.983,4.983,0,0,0-4.392-2.306c-2.668,0-4.831,1.769-4.831,3.952H5.989V5.928Z"/><path class="cls-1" d="M0,66.581v-5.17H.657v5.107c0,2.085,1.125,3.285,3,3.285,1.8,0,2.945-1.086,2.945-3.222v-5.17h.657v5.094c0,2.54-1.479,3.893-3.628,3.893A3.452,3.452,0,0,1,0,66.581Z"/><path class="cls-1" d="M9.8,61.411h.619l6.105,7.7v-7.7h.632v8.848H16.66L10.429,62.4v7.862H9.8Z"/><path class="cls-1" d="M19.829,61.411h.657v8.848h-.657Z"/><path class="cls-1" d="M22.256,61.411h.733l3.463,8.14,3.476-8.14h.7L26.73,70.322h-.581Z"/><path class="cls-1" d="M32.305,61.411h6.3v.607H32.963v3.476h5.068V66.1H32.963v3.551h5.7v.607H32.305Z"/><path class="cls-1" d="M40.586,61.411H44.3a3.489,3.489,0,0,1,2.49.872,2.336,2.336,0,0,1,.67,1.643v.026c0,1.479-1.1,2.325-2.591,2.527l2.919,3.78h-.834l-2.818-3.666H41.243v3.666h-.657ZM44.226,66c1.479,0,2.579-.746,2.579-2.022v-.025c0-1.188-.936-1.934-2.541-1.934H41.243V66Z"/><path class="cls-1" d="M48.967,68.97l.43-.494a4.292,4.292,0,0,0,3.172,1.315c1.328,0,2.237-.746,2.237-1.757v-.025c0-.936-.493-1.479-2.5-1.884-2.123-.429-2.983-1.149-2.983-2.489V63.61c0-1.314,1.2-2.325,2.844-2.325A4.406,4.406,0,0,1,55.2,62.359l-.417.518a3.809,3.809,0,0,0-2.642-1c-1.3,0-2.161.746-2.161,1.668v.026c0,.935.48,1.5,2.579,1.934,2.047.416,2.907,1.15,2.907,2.438v.026c0,1.429-1.227,2.414-2.933,2.414A5.036,5.036,0,0,1,48.967,68.97Z"/><path class="cls-1" d="M57.525,61.411h.658v8.848h-.658Z"/><path class="cls-1" d="M63.157,62.018H60.072v-.607H66.9v.607H63.814v8.241h-.657Z"/><path class="cls-1" d="M72.018,66.758l-3.792-5.347h.822l3.311,4.753,3.324-4.753h.784l-3.792,5.334v3.514h-.657Z"/><path class="cls-1" d="M81.508,61.411h.657v8.241H87.36v.607H81.508Z"/><path class="cls-1" d="M89.194,61.411h.657v8.848h-.657Z"/><path class="cls-1" d="M92.47,61.411h3.653a3.215,3.215,0,0,1,2.3.784,1.905,1.905,0,0,1,.569,1.39v.025a2.188,2.188,0,0,1-1.5,2.1c1.062.277,2,.884,2,2.11v.026c0,1.479-1.264,2.414-3.172,2.414H92.47Zm5.852,2.237c0-.973-.8-1.63-2.212-1.63H93.127v3.476h2.92c1.327,0,2.275-.644,2.275-1.82Zm-2.2,2.453h-3v3.551h3.211c1.517,0,2.477-.7,2.477-1.807v-.026C98.815,66.732,97.867,66.1,96.123,66.1Z"/><path class="cls-1" d="M101.61,61.411h3.715a3.49,3.49,0,0,1,2.491.872,2.336,2.336,0,0,1,.67,1.643v.026c0,1.479-1.1,2.325-2.592,2.527l2.92,3.78h-.834l-2.819-3.666h-2.894v3.666h-.657ZM105.25,66c1.478,0,2.579-.746,2.579-2.022v-.025c0-1.188-.936-1.934-2.541-1.934h-3.021V66Z"/><path class="cls-1" d="M114.324,61.348h.632l4.121,8.911h-.721l-1.125-2.477h-5.22l-1.125,2.477H110.2Zm2.629,5.84-2.326-5.12-2.338,5.12Z"/><path class="cls-1" d="M120.847,61.411h3.717a3.488,3.488,0,0,1,2.489.872,2.337,2.337,0,0,1,.671,1.643v.026c0,1.479-1.1,2.325-2.592,2.527l2.92,3.78h-.835L124.4,66.593H121.5v3.666h-.657ZM124.488,66c1.479,0,2.578-.746,2.578-2.022v-.025c0-1.188-.936-1.934-2.541-1.934H121.5V66Z"/><path class="cls-1" d="M129.975,61.411h.657v8.848h-.657Z"/><path class="cls-1" d="M133.248,61.411h6.3v.607h-5.638v3.476h5.069V66.1h-5.069v3.551h5.7v.607h-6.358Z"/><path class="cls-1" d="M140.921,68.97l.43-.494a4.294,4.294,0,0,0,3.173,1.315c1.327,0,2.236-.746,2.236-1.757v-.025c0-.936-.492-1.479-2.5-1.884-2.124-.429-2.983-1.149-2.983-2.489V63.61c0-1.314,1.2-2.325,2.844-2.325a4.406,4.406,0,0,1,3.033,1.074l-.416.518a3.814,3.814,0,0,0-2.642-1c-1.3,0-2.162.746-2.162,1.668v.026c0,.935.481,1.5,2.579,1.934,2.047.416,2.907,1.15,2.907,2.438v.026c0,1.429-1.226,2.414-2.933,2.414A5.036,5.036,0,0,1,140.921,68.97Z"/><rect class="cls-1" x="0.056" y="53.282" width="211.384" height="0.633"/><path class="cls-2" d="M70.563,15.147a2.127,2.127,0,0,1,.608,1.338c.058.309.173.459.347.449q.318-.029.3-.461c-.01-.144-.039-.38-.087-.706a7.57,7.57,0,0,1-.072-1.239A1.823,1.823,0,0,0,71.5,13.5q-.166-.173-.963-.172H54.954a.769.769,0,0,0-.645.209,1.657,1.657,0,0,0-.152.872,8.681,8.681,0,0,1-.217,1.716,6.44,6.44,0,0,0-.173,1.11q0,.375.26.389t.391-.55a3.352,3.352,0,0,1,.817-1.772,2.525,2.525,0,0,1,1.7-.47h3.834a1.108,1.108,0,0,1,.7.145.978.978,0,0,1,.152.667l.015.376v14.36a2.713,2.713,0,0,1-.391,1.689,2.3,2.3,0,0,1-1.5.615q-.478.057-.478.283,0,.31.435.311c.1,0,.42-.029.972-.087a10.214,10.214,0,0,1,1.029-.044l1.13-.014,1.059.014a11.368,11.368,0,0,1,1.3.044,5.639,5.639,0,0,0,.71.087c.27,0,.406-.1.406-.312q0-.24-.507-.325a2,2,0,0,1-1.895-2.014l-.014-.565v-14.2a1.391,1.391,0,0,1,.166-.855,1.208,1.208,0,0,1,.8-.174h4.065a2.972,2.972,0,0,1,1.635.311Zm7.845-.549a1.947,1.947,0,0,1,1.155-.225H81.83a14.354,14.354,0,0,1,3.076.217,1.527,1.527,0,0,1,1.112.868,2.3,2.3,0,0,1,.173.883v.376q0,.448.281.434a.329.329,0,0,0,.324-.224,5.882,5.882,0,0,0,.148-1.045l.057-.85q.073-.951.116-1.153a1.648,1.648,0,0,0,.044-.332c0-.279-.16-.418-.478-.418a4.331,4.331,0,0,0-.579.058q-.187.028-1.041.058l-2.054.1q-1.36.058-3.125.058a45.459,45.459,0,0,1-4.977-.232,8.672,8.672,0,0,0-.969-.072q-.651,0-.651.4c0,.18.139.269.419.269a1.942,1.942,0,0,1,1.772.718,5.767,5.767,0,0,1,.456,2.789V29.515l-.014.942q0,1.738-1.042,2.029l-.55.159q-.377.1-.376.34,0,.311.463.311a5.092,5.092,0,0,0,.752-.1,24.923,24.923,0,0,1,3.574-.174q1.807,0,4.571.261.71.057,1.129.057a3.975,3.975,0,0,0,3.211-1.557,3.823,3.823,0,0,0,1.057-2.234c0-.26-.09-.385-.267-.375-.109.01-.218.1-.327.26q-1.617,2.561-7.3,2.561a4.88,4.88,0,0,1-2.232-.3q-.441-.3-.44-1.536V24.82l-.015-.478a.629.629,0,0,1,.238-.58,2.064,2.064,0,0,1,.946-.144h3.191a3.309,3.309,0,0,1,1.761.347,1.9,1.9,0,0,1,.693,1.316l.086.405a.345.345,0,0,0,.37.319c.188,0,.281-.121.281-.361,0-.087-.009-.226-.029-.419q-.086-.866-.086-1.746,0-1.153.128-2.554c.011-.144.016-.25.016-.317,0-.25-.093-.38-.281-.39s-.32.106-.37.347a2.926,2.926,0,0,1-.419,1.215,1.926,1.926,0,0,1-1.013.42,13.022,13.022,0,0,1-2.4.173H79.016c-.415,0-.664-.045-.745-.137a1.512,1.512,0,0,1-.123-.806V15.593a1.341,1.341,0,0,1,.26-.995Zm29.35,3.32V16.355a4.335,4.335,0,0,1,.282-1.895,1.71,1.71,0,0,1,1.164-.723c.2-.058.3-.15.29-.275q-.03-.3-.405-.3a4.151,4.151,0,0,0-.709.087,9.345,9.345,0,0,1-1.433.087q-1.677,0-2.676-.106-.42-.039-.607-.039-.42,0-.42.268,0,.284.42.354a4.193,4.193,0,0,1,2.061.759,2.7,2.7,0,0,1,.716,1.744l.174,3.327-.015,1.953v7.161c-.009.174-.063.266-.159.275q-.087.015-.405-.347L92.726,13.606A1,1,0,0,0,92,13.187c-.125,0-.3.005-.535.014l-.232.015-.969-.029-.593-.015c-.106-.009-.183-.014-.232-.014-.212,0-.318.089-.318.268s.13.288.391.325a2.992,2.992,0,0,1,2.3,1.643,8.215,8.215,0,0,1,.8,3.946v9.845a4.548,4.548,0,0,1-.427,2.266,2.963,2.963,0,0,1-1.642,1.122q-.42.141-.405.353.029.268.405.269a4.5,4.5,0,0,0,.535-.053,8.3,8.3,0,0,1,1.071-.066l.694-.026,1.476.072q1.1.059,1.258.087a3.577,3.577,0,0,0,.434.029c.2,0,.3-.094.3-.283q0-.311-.477-.368a3.032,3.032,0,0,1-1.534-.536,2.072,2.072,0,0,1-.491-1.317l-.044-1.029.015-.608V19.278c0-.434.091-.652.274-.652a.279.279,0,0,1,.2.087l.145.159L106.6,32.819l.319.376a.5.5,0,0,0,.332.13.366.366,0,0,0,.405-.34A14.771,14.771,0,0,0,107.729,31V18.872l.029-.954Zm20.984,0V16.355a4.335,4.335,0,0,1,.282-1.895,1.71,1.71,0,0,1,1.164-.723c.2-.058.3-.15.29-.275q-.03-.3-.405-.3a4.151,4.151,0,0,0-.709.087,9.345,9.345,0,0,1-1.433.087q-1.677,0-2.676-.106-.42-.039-.607-.039-.42,0-.42.268,0,.284.42.354a4.193,4.193,0,0,1,2.061.759,2.7,2.7,0,0,1,.716,1.744l.174,3.327-.015,1.953v7.161c-.009.174-.063.266-.159.275q-.087.015-.405-.347L113.71,13.606a1,1,0,0,0-.723-.419c-.125,0-.3.005-.535.014l-.232.015-.969-.029-.593-.015c-.106-.009-.183-.014-.232-.014-.212,0-.318.089-.318.268s.13.288.391.325a2.992,2.992,0,0,1,2.3,1.643,8.215,8.215,0,0,1,.8,3.946v9.845a4.548,4.548,0,0,1-.427,2.266,2.963,2.963,0,0,1-1.642,1.122q-.42.141-.405.353.029.268.405.269a4.5,4.5,0,0,0,.535-.053,8.3,8.3,0,0,1,1.071-.066l.694-.026,1.476.072q1.1.059,1.258.087a3.577,3.577,0,0,0,.434.029c.2,0,.3-.094.3-.283q0-.311-.477-.368a3.032,3.032,0,0,1-1.534-.536,2.077,2.077,0,0,1-.492-1.317l-.043-1.029.015-.608V19.278c0-.434.091-.652.274-.652a.279.279,0,0,1,.2.087l.145.159,12.2,13.947.319.376a.5.5,0,0,0,.332.13.366.366,0,0,0,.4-.34A14.771,14.771,0,0,0,128.713,31V18.872l.029-.954Zm7.919-3.32a1.953,1.953,0,0,1,1.156-.225h2.267a14.354,14.354,0,0,1,3.076.217,1.527,1.527,0,0,1,1.112.868,2.3,2.3,0,0,1,.173.883v.376q0,.448.28.434a.33.33,0,0,0,.325-.224,5.82,5.82,0,0,0,.147-1.045l.058-.85q.072-.951.116-1.153a1.636,1.636,0,0,0,.043-.332q0-.418-.477-.418a4.331,4.331,0,0,0-.579.058q-.187.028-1.041.058l-2.055.1q-1.359.058-3.124.058a45.459,45.459,0,0,1-4.977-.232,8.672,8.672,0,0,0-.969-.072q-.651,0-.651.4c0,.18.139.269.419.269a1.942,1.942,0,0,1,1.772.718,5.767,5.767,0,0,1,.456,2.789V29.515l-.014.942q0,1.738-1.042,2.029l-.55.159q-.377.1-.376.34,0,.311.463.311a5.092,5.092,0,0,0,.752-.1A24.923,24.923,0,0,1,137,33.021q1.807,0,4.571.261.709.057,1.129.057a3.977,3.977,0,0,0,3.211-1.557,3.82,3.82,0,0,0,1.056-2.234q0-.39-.267-.375c-.108.01-.217.1-.326.26q-1.617,2.561-7.295,2.561a4.88,4.88,0,0,1-2.232-.3q-.441-.3-.441-1.536V24.82l-.014-.478a.627.627,0,0,1,.238-.58,2.064,2.064,0,0,1,.946-.144h3.191a3.309,3.309,0,0,1,1.761.347,1.9,1.9,0,0,1,.693,1.316l.086.405a.345.345,0,0,0,.37.319c.187,0,.281-.121.281-.361,0-.087-.009-.226-.029-.419q-.086-.866-.086-1.746,0-1.153.128-2.554c.011-.144.016-.25.016-.317q0-.375-.281-.39c-.2-.01-.321.106-.37.347a2.926,2.926,0,0,1-.419,1.215,1.926,1.926,0,0,1-1.013.42,13.027,13.027,0,0,1-2.4.173H137.27c-.415,0-.664-.045-.746-.137a1.522,1.522,0,0,1-.123-.806V15.593a1.346,1.346,0,0,1,.26-.995Zm14.844-.182a4.766,4.766,0,0,0-1.743,3.816,4.576,4.576,0,0,0,1.336,3.412,12.114,12.114,0,0,0,4.544,2.4,14.537,14.537,0,0,1,3.757,1.607,3.447,3.447,0,0,1,1.271,2.708,3.615,3.615,0,0,1-1.378,2.853,5.018,5.018,0,0,1-3.369,1.173,6.049,6.049,0,0,1-3.635-1.219,5.614,5.614,0,0,1-2.193-3.018c-.138-.465-.295-.7-.472-.711q-.3-.015-.295.419a7.792,7.792,0,0,0,.376,1.852q.333,1.2.362,1.317a7.047,7.047,0,0,0,.26,1.005.924.924,0,0,0,.347.369,6.208,6.208,0,0,0,1.961.738,10.671,10.671,0,0,0,2.452.318,7.391,7.391,0,0,0,5.049-1.72,5.611,5.611,0,0,0,1.967-4.424q0-3.99-5.345-5.739a35.832,35.832,0,0,1-3.446-1.26,3.848,3.848,0,0,1-1.293-1.1,3.344,3.344,0,0,1-.679-2.1,2.93,2.93,0,0,1,1.045-2.295,3.8,3.8,0,0,1,2.6-.92,6.481,6.481,0,0,1,3.555,1.016,4.864,4.864,0,0,1,2.113,2.584q.235.7.471.7.31,0,.31-.448a5.793,5.793,0,0,0-.072-.593l-.232-1.49q-.187-1.215-.188-1.461,0-.724-.362-.709a.187.187,0,0,0-.159.058l-.2.173a.543.543,0,0,1-.348.145.632.632,0,0,1-.26-.058l-1-.42A6.785,6.785,0,0,0,156,12.941a6.717,6.717,0,0,0-4.492,1.475Zm15.581,0a4.766,4.766,0,0,0-1.743,3.816,4.576,4.576,0,0,0,1.336,3.412,12.114,12.114,0,0,0,4.544,2.4,14.537,14.537,0,0,1,3.757,1.607,3.447,3.447,0,0,1,1.271,2.708,3.615,3.615,0,0,1-1.378,2.853,5.018,5.018,0,0,1-3.369,1.173,6.049,6.049,0,0,1-3.635-1.219,5.614,5.614,0,0,1-2.193-3.018c-.138-.465-.295-.7-.472-.711q-.3-.015-.3.419a7.792,7.792,0,0,0,.376,1.852q.333,1.2.362,1.317a6.9,6.9,0,0,0,.26,1.005.924.924,0,0,0,.347.369,6.208,6.208,0,0,0,1.961.738,10.671,10.671,0,0,0,2.452.318,7.391,7.391,0,0,0,5.049-1.72,5.611,5.611,0,0,0,1.967-4.424q0-3.99-5.345-5.739a35.832,35.832,0,0,1-3.446-1.26,3.848,3.848,0,0,1-1.293-1.1,3.344,3.344,0,0,1-.679-2.1,2.93,2.93,0,0,1,1.045-2.295,3.8,3.8,0,0,1,2.6-.92,6.481,6.481,0,0,1,3.555,1.016,4.864,4.864,0,0,1,2.113,2.584q.236.7.471.7.31,0,.31-.448a5.793,5.793,0,0,0-.072-.593l-.232-1.49q-.187-1.215-.188-1.461,0-.724-.362-.709a.187.187,0,0,0-.159.058l-.2.173a.543.543,0,0,1-.348.145.632.632,0,0,1-.26-.058l-1-.42a6.785,6.785,0,0,0-2.619-.448,6.717,6.717,0,0,0-4.492,1.475Zm17.586.182a1.95,1.95,0,0,1,1.156-.225H188.1a14.36,14.36,0,0,1,3.076.217,1.527,1.527,0,0,1,1.112.868,2.3,2.3,0,0,1,.173.883v.376q0,.448.28.434a.332.332,0,0,0,.325-.224,5.82,5.82,0,0,0,.147-1.045l.058-.85q.072-.951.116-1.153a1.636,1.636,0,0,0,.043-.332q0-.418-.477-.418a4.316,4.316,0,0,0-.579.058q-.187.028-1.041.058l-2.055.1q-1.359.058-3.125.058a45.452,45.452,0,0,1-4.976-.232,8.687,8.687,0,0,0-.97-.072q-.651,0-.651.4c0,.18.14.269.42.269a1.944,1.944,0,0,1,1.772.718,5.767,5.767,0,0,1,.456,2.789V29.515l-.015.942q0,1.738-1.041,2.029l-.55.159q-.376.1-.376.34,0,.311.463.311a5.109,5.109,0,0,0,.752-.1,24.916,24.916,0,0,1,3.573-.174q1.809,0,4.572.261.71.057,1.129.057a3.977,3.977,0,0,0,3.211-1.557,3.82,3.82,0,0,0,1.056-2.234q0-.39-.267-.375c-.108.01-.217.1-.326.26q-1.619,2.561-7.295,2.561a4.877,4.877,0,0,1-2.232-.3q-.441-.3-.441-1.536V24.82l-.014-.478a.627.627,0,0,1,.238-.58,2.064,2.064,0,0,1,.946-.144h3.19a3.3,3.3,0,0,1,1.761.347,1.9,1.9,0,0,1,.694,1.316l.086.405a.344.344,0,0,0,.37.319c.187,0,.281-.121.281-.361,0-.087-.01-.226-.029-.419a17.446,17.446,0,0,1-.087-1.746q0-1.153.129-2.554c.011-.144.016-.25.016-.317q0-.375-.281-.39c-.2-.01-.321.106-.37.347a2.926,2.926,0,0,1-.419,1.215,1.926,1.926,0,0,1-1.013.42,13.034,13.034,0,0,1-2.4.173H185.28c-.414,0-.663-.045-.745-.137a1.522,1.522,0,0,1-.123-.806V15.593a1.346,1.346,0,0,1,.26-.995Zm16.586,0a1.947,1.947,0,0,1,1.155-.225h2.267a14.354,14.354,0,0,1,3.076.217,1.527,1.527,0,0,1,1.112.868,2.3,2.3,0,0,1,.173.883v.376q0,.448.281.434a.329.329,0,0,0,.324-.224,5.882,5.882,0,0,0,.148-1.045l.057-.85q.074-.951.116-1.153a1.648,1.648,0,0,0,.044-.332c0-.279-.16-.418-.478-.418a4.331,4.331,0,0,0-.579.058q-.187.028-1.041.058l-2.054.1q-1.361.058-3.125.058a45.459,45.459,0,0,1-4.977-.232,8.672,8.672,0,0,0-.969-.072q-.651,0-.651.4c0,.18.139.269.419.269a1.942,1.942,0,0,1,1.772.718,5.767,5.767,0,0,1,.456,2.789V29.515l-.014.942q0,1.738-1.042,2.029l-.55.159q-.377.1-.376.34,0,.311.463.311a5.092,5.092,0,0,0,.752-.1,24.923,24.923,0,0,1,3.574-.174q1.807,0,4.571.261.709.057,1.129.057a3.975,3.975,0,0,0,3.211-1.557,3.823,3.823,0,0,0,1.057-2.234c0-.26-.09-.385-.267-.375-.109.01-.218.1-.327.26q-1.617,2.561-7.3,2.561a4.88,4.88,0,0,1-2.232-.3q-.441-.3-.44-1.536V24.82l-.015-.478a.627.627,0,0,1,.238-.58,2.064,2.064,0,0,1,.946-.144h3.191a3.309,3.309,0,0,1,1.761.347,1.9,1.9,0,0,1,.693,1.316l.086.405a.345.345,0,0,0,.37.319c.188,0,.281-.121.281-.361,0-.087-.009-.226-.028-.419a17.446,17.446,0,0,1-.087-1.746q0-1.153.128-2.554c.011-.144.016-.25.016-.317,0-.25-.093-.38-.281-.39s-.32.106-.37.347a2.926,2.926,0,0,1-.419,1.215,1.926,1.926,0,0,1-1.013.42,13.022,13.022,0,0,1-2.4.173h-2.228c-.415,0-.664-.045-.745-.137A1.512,1.512,0,0,1,201,21.43V15.593a1.341,1.341,0,0,1,.26-.995Z"/><path class="cls-1" d="M59.438,1.077A2.918,2.918,0,0,1,60.661.925a1.951,1.951,0,0,1,1.113.266,1.365,1.365,0,0,1,.519.869q.059.246.207.246.174,0,.174-.213a4.434,4.434,0,0,0-.045-.549c-.039-.275-.061-.449-.065-.522L62.532.557q-.019-.3-.374-.3c-.065,0-.209,0-.433.013q-1.7.084-3.212.083L56.945.338,55.629.325q-.465,0-.716-.019c-.1-.009-.177-.013-.22-.013a.247.247,0,0,0-.271.252l-.045.393-.077.574-.065.562a3.676,3.676,0,0,0-.064.5c-.009.133.058.2.2.2.1,0,.172-.089.219-.266l.052-.181a4.228,4.228,0,0,1,.306-.884.964.964,0,0,1,.455-.32A5.486,5.486,0,0,1,57.164.938q.549,0,.549.51V7.177l.006.3a1.378,1.378,0,0,1-.274.906,1.045,1.045,0,0,1-.778.365.535.535,0,0,0-.251.056.239.239,0,0,0-.065.186c0,.114.061.171.194.171.056,0,.159-.009.31-.026l1.425-.084q.3-.019.671-.019.162,0,.258.006l.807.052.484.019c.077,0,.131.007.161.007.133,0,.2-.051.2-.151,0-.14-.077-.217-.232-.23a1.377,1.377,0,0,1-1.116-.506A2.816,2.816,0,0,1,59.2,6.686V1.828q0-.6.242-.751ZM71.8,4.831a1.974,1.974,0,0,1,.083.764V7.012l-.006.348a2.057,2.057,0,0,1-.19,1,.834.834,0,0,1-.629.4c-.108.013-.162.066-.162.158,0,.144.069.217.207.217.069,0,.234-.016.5-.046a10.657,10.657,0,0,1,1.071-.071,12.135,12.135,0,0,1,1.4.091c.223.026.374.038.451.038.224,0,.336-.067.336-.2,0-.114-.08-.171-.239-.171a1.107,1.107,0,0,1-.958-.4,2.282,2.282,0,0,1-.294-1.318V1.517a.856.856,0,0,1,.762-.96c.124-.021.187-.081.187-.177,0-.118-.078-.177-.233-.177s-.393.015-.7.045Q72.6.332,72.359.332A8.085,8.085,0,0,1,71.127.25,3.5,3.5,0,0,0,70.7.2c-.138,0-.207.063-.207.19,0,.1.061.168.181.19l.3.058a.952.952,0,0,1,.909.994V3.022a2.478,2.478,0,0,1-.087.874c-.058.106-.218.158-.48.158H68.3q-.53,0-.623-.112a1.714,1.714,0,0,1-.093-.77V1.517a.855.855,0,0,1,.761-.96c.125-.021.187-.081.187-.177C68.533.262,68.456.2,68.3.2s-.394.015-.7.045q-.782.084-1.02.084A7.975,7.975,0,0,1,65.352.25,3.472,3.472,0,0,0,64.927.2c-.138,0-.207.063-.207.19,0,.1.06.164.181.19a2.137,2.137,0,0,1,.945.358.871.871,0,0,1,.255.693V7.01l-.007.349a2.047,2.047,0,0,1-.19,1,.834.834,0,0,1-.629.4c-.108.013-.161.066-.161.158,0,.144.068.217.206.217.069,0,.235-.016.5-.046a10.63,10.63,0,0,1,1.064-.071,12,12,0,0,1,1.4.091c.228.026.381.038.459.038.223,0,.335-.067.335-.2q0-.171-.219-.171a1.132,1.132,0,0,1-.975-.4,2.272,2.272,0,0,1-.3-1.318v-1.6a1.124,1.124,0,0,1,.106-.629q.106-.118.565-.119h3.058c.266,0,.428.044.484.132Zm7.874-3.338q0-.549.329-.652L80.44.79h.787a3,3,0,0,1,1.513.288,1.009,1.009,0,0,1,.468.93c0,.194.041.289.122.285.168-.009.252-.176.252-.5q0-.246-.052-.807c-.025-.254-.038-.43-.038-.529,0-.142-.063-.213-.187-.213a.643.643,0,0,0-.091.007q-.49.057-2.6.058L78.169.28,77.517.254c-.133,0-.238,0-.316-.006-.1-.009-.163-.013-.193-.013-.142,0-.213.05-.213.151a.178.178,0,0,0,.174.191,1.68,1.68,0,0,1,.978.36,1.5,1.5,0,0,1,.235.98V7.025a4.782,4.782,0,0,1-.071.927,1.294,1.294,0,0,1-.21.564,1.24,1.24,0,0,1-.5.3c-.1.04-.146.1-.142.178a.147.147,0,0,0,.168.145c.078,0,.2-.006.381-.019q.961-.058,1.432-.058.7,0,1.116.038l.749.071a8.863,8.863,0,0,0,.916.052,2.5,2.5,0,0,0,1.129-.217,1.718,1.718,0,0,0,.709-.721A2.438,2.438,0,0,0,84.2,7.055a.189.189,0,0,0-.054-.139.127.127,0,0,0-.12-.042c-.021,0-.047.032-.077.083q-.807,1.594-3.426,1.594a.808.808,0,0,1-.458-.1.821.821,0,0,1-.258-.393,4.27,4.27,0,0,1-.142-1.307v-.58a9.424,9.424,0,0,1,.039-1.018.589.589,0,0,1,.151-.377.693.693,0,0,1,.423-.093h.438a5.931,5.931,0,0,1,.907.045.812.812,0,0,1,.41.2,1.389,1.389,0,0,1,.387.832c.025.172.092.254.2.246a.132.132,0,0,0,.1-.046.262.262,0,0,0,.019-.123l-.006-.329q0-.369-.039-.867-.058-.762-.058-.969c0-.078,0-.173.013-.285.013-.155.019-.25.019-.284,0-.121-.047-.179-.142-.175a.211.211,0,0,0-.193.123l-.149.316a1.078,1.078,0,0,1-.987.7h-.548l-.284.006-.193.007c-.224,0-.365-.054-.423-.161a2.014,2.014,0,0,1-.087-.762v-1.4l.006-.264ZM97.979.36c0,.127.084.191.251.191a1.239,1.239,0,0,1,.91.332,1.381,1.381,0,0,1,.374.932l.033,1.323v.523A13.142,13.142,0,0,1,99.33,6.4,2.827,2.827,0,0,1,98.6,7.854a2.791,2.791,0,0,1-2.013.736,2.846,2.846,0,0,1-2-.716,2.231,2.231,0,0,1-.68-1.133,10.344,10.344,0,0,1-.165-2.222l-.013-1.142.1-1.626A1.97,1.97,0,0,1,94,.909a.766.766,0,0,1,.529-.294.718.718,0,0,0,.245-.078.169.169,0,0,0,.052-.144c0-.127-.112-.19-.335-.19-.09,0-.238.008-.444.025Q93.279.3,92.647.3,92.2.3,91.385.222C91.256.209,91.168.2,91.12.2c-.146,0-.219.057-.219.17s.084.171.252.2a2.547,2.547,0,0,1,.71.207.718.718,0,0,1,.358.309,1.556,1.556,0,0,1,.087.619l.019,1.173-.071,2.5q0,2.431,1.233,3.275a4.5,4.5,0,0,0,2.554.619,3.637,3.637,0,0,0,3.3-1.5,4.56,4.56,0,0,0,.59-1.76,19.6,19.6,0,0,0,.184-3l.013-.793-.007-.561q0-.993.5-1.077l.246-.045c.107-.017.161-.07.161-.158A.153.153,0,0,0,100.862.2a1.864,1.864,0,0,0-.213.013c-.164.022-.353.041-.569.058l-.634.026L98.761.261c-.267-.013-.437-.026-.511-.039A.425.425,0,0,0,98.1.2c-.082,0-.123.057-.123.157Zm8.708,1-.444-.523a4.478,4.478,0,0,0-.49-.532.512.512,0,0,0-.315-.087c-.095,0-.213.006-.356.019A10.715,10.715,0,0,1,104,.3l-.272.007-.446-.02c-.147,0-.22.062-.22.184,0,.1.067.156.2.165q1.464.1,1.464,2.085V5.514l-.045,1.531a2.727,2.727,0,0,1-.216,1.214,1.067,1.067,0,0,1-.687.556c-.125.036-.187.1-.187.184,0,.106.058.158.174.158a2.258,2.258,0,0,0,.33-.037,6.645,6.645,0,0,1,1.164-.092,7.376,7.376,0,0,1,1.2.091,1.943,1.943,0,0,0,.252.025.175.175,0,0,0,.2-.2c0-.1-.064-.152-.193-.165q-1.045-.1-1.258-.818a11.409,11.409,0,0,1-.2-2.682v-2.5l.006-.187c0-.194.052-.29.155-.29.039,0,.109.056.213.168L111.507,9a.365.365,0,0,0,.238.142c.087,0,.131-.054.131-.174l-.027-.806-.006-.49.006-.715.027-.555.091-4.029V2.053q0-1.321.832-1.476c.138-.022.207-.088.207-.2S112.937.2,112.8.2c-.039,0-.1,0-.188.013A12.617,12.617,0,0,1,111.2.332a4.987,4.987,0,0,1-.556-.039,6.887,6.887,0,0,0-.75-.065c-.125,0-.187.057-.187.172,0,.092.071.142.212.151a1.393,1.393,0,0,1,1.2.6,4.626,4.626,0,0,1,.306,2.05q0,1.289-.058,2.713c-.008.262-.058.393-.148.393s-.294-.164-.586-.491l-.218-.245L107,1.738q-.051-.064-.315-.374Zm11.456.238a1.372,1.372,0,0,1,.132-.735.929.929,0,0,1,.6-.258.277.277,0,0,0,.161-.059.271.271,0,0,0,.032-.158c0-.105-.071-.157-.213-.157q-.354,0-1.019.049l-.471.037q-.535.043-.9.043a4.024,4.024,0,0,1-.781-.052,2.728,2.728,0,0,0-.348-.051c-.1-.005-.155.054-.155.176a.171.171,0,0,0,.094.167,1.68,1.68,0,0,0,.422.1,1.177,1.177,0,0,1,.755.335,1.337,1.337,0,0,1,.207.843V7.018l-.007.574a1.585,1.585,0,0,1-.151.8,1.178,1.178,0,0,1-.616.409l-.188.151.013.052a.172.172,0,0,0,.181.138,2.808,2.808,0,0,0,.464-.061,6.033,6.033,0,0,1,1.02-.068,12.714,12.714,0,0,1,1.361.095c.224.023.4.034.516.034q.42,0,.42-.19c0-.131-.106-.2-.317-.2a1.142,1.142,0,0,1-.783-.264,1.228,1.228,0,0,1-.378-.761l-.051-.644V1.6Zm6.079-.445A.511.511,0,0,1,124.7.6c.181-.035.271-.1.271-.2a.158.158,0,0,0-.18-.177c-.086,0-.273.009-.561.026l-.676.032L122.471.248a6.581,6.581,0,0,1-.766-.039C121.61.2,121.546.2,121.512.2a.159.159,0,0,0-.181.177c0,.109.087.182.258.217a1.116,1.116,0,0,1,.713.477,8.49,8.49,0,0,1,.707,1.566q.373,1.012.935,2.289l1.529,3.468.162.394.148.328c.048.1.113.155.2.155.122,0,.224-.1.307-.29q.045-.11.394-.825.045-.084.58-1.277l1.1-2.43.961-2.224A7.728,7.728,0,0,1,130,.922a.963.963,0,0,1,.61-.384c.129-.026.193-.09.193-.19s-.038-.165-.116-.165a1.847,1.847,0,0,0-.257.026,5.8,5.8,0,0,1-1.017.077q-.194,0-.651-.025l-.676-.039c-.185-.009-.305-.013-.36-.013-.108,0-.161.051-.161.151s.075.161.225.178a1.5,1.5,0,0,1,.8.332.844.844,0,0,1,.28.654,6.549,6.549,0,0,1-.718,2.288L126.7,7.035c-.056.125-.108.185-.155.18s-.11-.083-.175-.238l-1.44-3.526a7.869,7.869,0,0,1-.706-2.294Zm11.092.336q0-.549.329-.652l.439-.051h.787a3,3,0,0,1,1.513.288,1.009,1.009,0,0,1,.468.93c0,.194.04.289.122.285.168-.009.252-.176.252-.5q0-.246-.052-.807c-.026-.254-.038-.43-.038-.529,0-.142-.063-.213-.188-.213a.631.631,0,0,0-.09.007q-.49.057-2.6.058L133.811.28l-.652-.026c-.133,0-.238,0-.316-.006-.1-.009-.163-.013-.193-.013-.142,0-.213.05-.213.151a.178.178,0,0,0,.174.191,1.673,1.673,0,0,1,.977.36,1.493,1.493,0,0,1,.236.98V7.025a4.782,4.782,0,0,1-.071.927,1.294,1.294,0,0,1-.21.564,1.24,1.24,0,0,1-.5.3c-.1.04-.146.1-.142.178a.147.147,0,0,0,.168.145c.077,0,.2-.006.381-.019q.96-.058,1.432-.058.7,0,1.116.038l.748.071a8.9,8.9,0,0,0,.917.052,2.5,2.5,0,0,0,1.129-.217,1.718,1.718,0,0,0,.709-.721,2.438,2.438,0,0,0,.342-1.229.186.186,0,0,0-.055-.139.124.124,0,0,0-.119-.042c-.022,0-.047.032-.077.083q-.807,1.594-3.426,1.594a.808.808,0,0,1-.458-.1.821.821,0,0,1-.258-.393,4.27,4.27,0,0,1-.142-1.307v-.58a9.764,9.764,0,0,1,.038-1.018.594.594,0,0,1,.152-.377.693.693,0,0,1,.423-.093h.438a5.94,5.94,0,0,1,.907.045.812.812,0,0,1,.41.2,1.389,1.389,0,0,1,.387.832c.025.172.092.254.2.246a.132.132,0,0,0,.1-.046.262.262,0,0,0,.019-.123l-.006-.329q0-.369-.039-.867-.059-.762-.058-.969c0-.078,0-.173.013-.285.013-.155.019-.25.019-.284,0-.121-.047-.179-.142-.175a.21.21,0,0,0-.193.123l-.149.316a1.078,1.078,0,0,1-.987.7h-.548l-.284.006-.194.007c-.223,0-.364-.054-.422-.161a2.014,2.014,0,0,1-.087-.762v-1.4l.006-.264Zm9.315,3.78c0-.172.032-.275.1-.309l.29-.052h.4a1.139,1.139,0,0,1,.736.191,3.093,3.093,0,0,1,.573.906,13.09,13.09,0,0,0,1.455,2.465,1.609,1.609,0,0,0,1.223.651,2.315,2.315,0,0,0,.937-.239q.528-.238.528-.425c0-.1-.039-.148-.117-.148a.578.578,0,0,0-.141.019,1.435,1.435,0,0,1-.278.026.934.934,0,0,1-.629-.232,3.3,3.3,0,0,1-.609-.832l-.665-1.18L147.855,5.1q-.117-.213-.174-.3a.365.365,0,0,1-.065-.155q-.006-.077.123-.129a2.242,2.242,0,0,0,.984-.794,2.015,2.015,0,0,0,.358-1.162,2.093,2.093,0,0,0-.807-1.682A3.076,3.076,0,0,0,146.242.2c-.275,0-.777.028-1.5.083q-.93.072-1.581.071a10.713,10.713,0,0,1-1.09-.051,2.244,2.244,0,0,0-.233-.02.161.161,0,0,0-.18.184c0,.122.088.2.264.223a1.432,1.432,0,0,1,1.033.521,1.906,1.906,0,0,1,.193,1.036V6.91l-.006.251v.612a1.179,1.179,0,0,1-.168.7,1.144,1.144,0,0,1-.607.364.172.172,0,0,0-.129.184c0,.118.078.177.233.177.047,0,.131-.006.251-.018l.433-.037.542-.049q.335-.026.767-.025.516,0,1.071.045c.129.013.217.02.265.02.146,0,.219-.062.219-.184s-.09-.192-.271-.21a1.026,1.026,0,0,1-.89-.5,4.068,4.068,0,0,1-.226-1.659V5.273Zm.165-4.4a.794.794,0,0,1,.6-.184,2.178,2.178,0,0,1,2.257,2.246,1.5,1.5,0,0,1-.472,1.174.978.978,0,0,1-.514.261,13.616,13.616,0,0,1-1.426.042.761.761,0,0,1-.507-.11.826.826,0,0,1-.107-.522V1.544a1.03,1.03,0,0,1,.165-.674Zm8.838-.041a2.46,2.46,0,0,0-.693,1.782,2.108,2.108,0,0,0,.5,1.468,5.823,5.823,0,0,0,1.886,1.172l.982.438a2.472,2.472,0,0,1,.927.618,1.275,1.275,0,0,1,.268.836,1.552,1.552,0,0,1-.513,1.142,1.632,1.632,0,0,1-1.166.5A2.337,2.337,0,0,1,154.2,8.03a4.1,4.1,0,0,1-1.1-1.86c-.025-.1-.068-.155-.129-.155-.133,0-.2.1-.2.31a5.766,5.766,0,0,0,.246,1.123,5.812,5.812,0,0,1,.193.877.774.774,0,0,0,.081.332.786.786,0,0,0,.345.113q.213.045.664.194a5.41,5.41,0,0,0,1.413.3,2.576,2.576,0,0,0,1.9-.833,2.711,2.711,0,0,0,.812-1.955,2.674,2.674,0,0,0-.587-1.743,5.353,5.353,0,0,0-2.029-1.226,6.629,6.629,0,0,1-1.531-.755A1.133,1.133,0,0,1,153.9,1.9a1.214,1.214,0,0,1,.433-.926,1.466,1.466,0,0,1,1.015-.392,2.412,2.412,0,0,1,1.6.657,2.775,2.775,0,0,1,.943,1.557c.034.163.09.244.168.244.107,0,.161-.092.161-.277a.757.757,0,0,0-.013-.129l-.064-.587-.084-.633a1.9,1.9,0,0,1-.013-.232l.013-.522c0-.142-.045-.213-.136-.213a.219.219,0,0,0-.1.026L157.577.6a.445.445,0,0,1-.187.045,1.3,1.3,0,0,1-.413-.116l-.432-.181a3.187,3.187,0,0,0-1.187-.232,2.305,2.305,0,0,0-1.726.717Zm9.889.773a1.372,1.372,0,0,1,.132-.735.929.929,0,0,1,.6-.258.273.273,0,0,0,.161-.059.262.262,0,0,0,.033-.158c0-.105-.071-.157-.213-.157q-.356,0-1.019.049l-.471.037c-.358.029-.656.043-.9.043a4.017,4.017,0,0,1-.781-.052,2.778,2.778,0,0,0-.348-.051c-.1-.005-.155.054-.155.176a.172.172,0,0,0,.093.167,1.7,1.7,0,0,0,.423.1,1.18,1.18,0,0,1,.755.335,1.344,1.344,0,0,1,.206.843V7.018l-.006.574a1.583,1.583,0,0,1-.152.8,1.17,1.17,0,0,1-.616.409l-.187.151.013.052a.172.172,0,0,0,.181.138,2.821,2.821,0,0,0,.464-.061,6.012,6.012,0,0,1,1.019-.068,12.713,12.713,0,0,1,1.362.095c.223.023.395.034.516.034q.418,0,.419-.19c0-.131-.105-.2-.316-.2a1.143,1.143,0,0,1-.784-.264,1.222,1.222,0,0,1-.377-.761l-.052-.644V1.6Zm8.43-.525a2.909,2.909,0,0,1,1.222-.152,1.951,1.951,0,0,1,1.113.266,1.365,1.365,0,0,1,.519.869q.058.246.207.246.174,0,.174-.213a4.434,4.434,0,0,0-.045-.549c-.039-.275-.06-.449-.065-.522l-.032-.465q-.02-.3-.374-.3c-.065,0-.209,0-.432.013q-1.7.084-3.213.083L169.457.338,168.141.325c-.31,0-.548-.006-.716-.019-.1-.009-.177-.013-.22-.013a.247.247,0,0,0-.271.252l-.045.393-.077.574-.065.562a3.843,3.843,0,0,0-.064.5c-.009.133.058.2.2.2.1,0,.172-.089.219-.266l.052-.181a4.228,4.228,0,0,1,.306-.884.964.964,0,0,1,.455-.32,5.486,5.486,0,0,1,1.761-.188q.549,0,.549.51V7.177l.006.3a1.378,1.378,0,0,1-.274.906,1.044,1.044,0,0,1-.777.365.544.544,0,0,0-.252.056.235.235,0,0,0-.064.186c0,.114.06.171.193.171.056,0,.159-.009.31-.026l1.426-.084q.3-.019.671-.019.161,0,.258.006l.806.052.484.019c.077,0,.131.007.161.007.133,0,.2-.051.2-.151,0-.14-.077-.217-.232-.23a1.379,1.379,0,0,1-1.116-.506,2.817,2.817,0,0,1-.316-1.546V1.828c0-.4.08-.65.242-.751ZM182.117,5.2a1.065,1.065,0,0,1,.164-.322q.684-1.077,1.5-2.656a5.726,5.726,0,0,1,.758-1.2,1.547,1.547,0,0,1,.784-.432c.155-.035.233-.1.233-.191s-.059-.151-.175-.151c-.2,0-.373,0-.511.013l-.543.032c-.172.013-.329.019-.472.019a5.171,5.171,0,0,1-.646-.032l-.427-.058A2.549,2.549,0,0,0,182.456.2c-.113,0-.168.068-.168.2,0,.088.068.14.206.158a1.4,1.4,0,0,1,.723.277.658.658,0,0,1,.316.509,5.265,5.265,0,0,1-.707,1.6q-.346.618-.43.786-.334.657-.54.657c-.137,0-.279-.151-.426-.451q-.07-.155-.381-.747l-.5-.979a3.731,3.731,0,0,1-.471-1.185c0-.224.165-.367.5-.432.147-.03.22-.092.22-.184,0-.109-.09-.164-.271-.164-.09,0-.268.013-.534.038a9.887,9.887,0,0,1-1.063.058,11.381,11.381,0,0,1-1.262-.077,4.934,4.934,0,0,0-.5-.039q-.18,0-.18.2c0,.109.079.17.239.183Q178,.693,178.591,1.8l.98,1.842q.407.773.742,1.327a1.711,1.711,0,0,1,.284.9V7.1a2.13,2.13,0,0,1-.255,1.211,1.45,1.45,0,0,1-.977.463c-.12.018-.181.066-.181.145,0,.144.05.217.149.217a2.623,2.623,0,0,0,.386-.046,11.411,11.411,0,0,1,1.6-.071c.335,0,.586.01.754.028l.915.081a2.894,2.894,0,0,0,.335.02c.193,0,.29-.063.29-.19s-.069-.175-.207-.184q-1.181-.064-1.29-.793l-.032-.438v-1.9a2.161,2.161,0,0,1,.029-.438ZM195.081.49a4.128,4.128,0,0,0-2.448,2.537,5.068,5.068,0,0,0-.316,1.747,4.367,4.367,0,0,0,1.251,3.27,4.579,4.579,0,0,0,3.342,1.223,4.346,4.346,0,0,0,3.432-1.407,5.1,5.1,0,0,0,1.278-3.513,4.039,4.039,0,0,0-1.239-3.076A4.539,4.539,0,0,0,197.13.1a5.414,5.414,0,0,0-2.049.391Zm3.687.932a3.966,3.966,0,0,1,.981,1.532,5.511,5.511,0,0,1,.368,1.978,4.532,4.532,0,0,1-.794,2.8,2.52,2.52,0,0,1-2.116,1.048,2.813,2.813,0,0,1-2.381-1.268,5.494,5.494,0,0,1-.916-3.293,4.347,4.347,0,0,1,.729-2.678,2.4,2.4,0,0,1,2.026-.961,2.964,2.964,0,0,1,2.1.839Zm7.641.019a.664.664,0,0,1,.145-.487.743.743,0,0,1,.513-.139l.265-.006.839.006q1.439,0,1.7.848a.731.731,0,0,1,.032.225v.219c0,.12.045.179.136.179.163,0,.245-.176.245-.53a2.025,2.025,0,0,0-.02-.253l-.064-.491c0-.044-.017-.2-.039-.473Q210.145.2,209.99.2c-.108,0-.273.009-.5.027q-.909.075-1.781.075l-1.7.006-1.11.021q-.432,0-.819-.033C203.91.286,203.8.28,203.751.28c-.146,0-.219.064-.219.191,0,.1.056.149.168.157a1.513,1.513,0,0,1,.941.316A1.408,1.408,0,0,1,204.925,2V7.3a3.058,3.058,0,0,1-.135,1.088.807.807,0,0,1-.523.445c-.12.039-.18.1-.18.184q0,.171.213.171a5.851,5.851,0,0,0,.632-.065,6.6,6.6,0,0,1,.832-.045h.716q.7,0,.936.026a3.193,3.193,0,0,0,.374.032c.094,0,.142-.059.142-.177s-.069-.165-.207-.178a1.318,1.318,0,0,1-.98-.38,2.324,2.324,0,0,1-.336-1.4v-.76l-.006-.515q0-.806.148-.928a2.629,2.629,0,0,1,1.116-.123,1.792,1.792,0,0,1,1.058.233,1.459,1.459,0,0,1,.433.909c.021.121.073.179.154.175.117-.009.175-.058.175-.148,0-.056,0-.148-.013-.277l-.1-1.217q-.039-.5-.039-.876c0-.077,0-.143.007-.2.008-.082.013-.137.013-.168,0-.111-.065-.167-.194-.167-.056,0-.1.05-.142.148a2.084,2.084,0,0,1-.484.807,1.093,1.093,0,0,1-.722.206l-.7.007-.245.006a.44.44,0,0,1-.364-.122.856.856,0,0,1-.094-.484V1.441Z"/><path class="cls-1" d="M57.887,39.912a2.187,2.187,0,0,1,.136-.971,1.142,1.142,0,0,1,.69-.371c.107-.027.161-.079.161-.158,0-.119-.062-.176-.187-.171-.077,0-.172.012-.284.025a12.953,12.953,0,0,1-1.361.065,15.059,15.059,0,0,1-1.555-.071,2.675,2.675,0,0,0-.322-.019c-.121,0-.181.05-.181.15a.333.333,0,0,0,.035.191.356.356,0,0,0,.191.058,1.711,1.711,0,0,1,.771.232.9.9,0,0,1,.364.529l.058.367-.006.251v5.172a2.68,2.68,0,0,1-.178,1.157.81.81,0,0,1-.642.409c-.111.022-.167.075-.167.159,0,.126.084.189.251.189s.39-.013.665-.039Q56.971,47,57.694,47a5.551,5.551,0,0,1,.89.058,2.642,2.642,0,0,0,.406.051c.142,0,.213-.065.213-.2,0-.114-.118-.18-.355-.2a.841.841,0,0,1-.751-.48,3.651,3.651,0,0,1-.216-1.484v-.277a4,4,0,0,1,.042-.737.734.734,0,0,1,.209-.345l.278-.271.193-.187a.32.32,0,0,1,.194-.116q.116,0,.3.3.206.355,1.083,1.519t1.433,1.829l.244.3a.777.777,0,0,0,.606.335c.064,0,.236-.017.515-.052a3.831,3.831,0,0,1,.431-.025q.438,0,1.069.064a1.659,1.659,0,0,0,.187.013c.128,0,.195-.052.2-.157a.191.191,0,0,0-.155-.21l-.135-.039a3.182,3.182,0,0,1-1.439-.773,30.391,30.391,0,0,1-2.34-2.951l-.466-.631a1.317,1.317,0,0,1-.291-.56q0-.219.544-.677.182-.154.673-.618a17.1,17.1,0,0,1,1.635-1.4,2.546,2.546,0,0,1,1.026-.477c.189-.03.284-.094.284-.19,0-.127-.076-.19-.226-.19a9.108,9.108,0,0,0-.918.077,4.841,4.841,0,0,1-.511.032q-.278,0-.97-.077a4.592,4.592,0,0,0-.543-.032c-.159,0-.239.054-.239.164s.069.178.207.178a.763.763,0,0,1,.445.116.358.358,0,0,1,.168.309q0,.581-1.778,2.175l-.9.8-.632.567a.945.945,0,0,1-.309.194c-.073,0-.109-.086-.109-.245V40.144l.006-.232Zm11.6-.568-.444-.523a4.509,4.509,0,0,0-.489-.532.517.517,0,0,0-.316-.087c-.095,0-.213.006-.356.019a10.715,10.715,0,0,1-1.08.058l-.272.007-.446-.02c-.147,0-.22.062-.22.184,0,.1.067.156.2.165q1.464.1,1.465,2.085v2.793l-.046,1.532a2.727,2.727,0,0,1-.216,1.214,1.067,1.067,0,0,1-.687.556c-.125.035-.187.1-.187.184,0,.106.058.158.174.158a2.258,2.258,0,0,0,.33-.037,6.645,6.645,0,0,1,1.164-.092,7.266,7.266,0,0,1,1.2.091,1.943,1.943,0,0,0,.252.025.176.176,0,0,0,.2-.2c0-.1-.065-.151-.194-.164q-1.046-.1-1.258-.818a11.472,11.472,0,0,1-.2-2.682v-2.5l.006-.187c0-.194.052-.29.155-.29.039,0,.11.056.213.167l5.869,6.523a.365.365,0,0,0,.238.142c.087,0,.131-.054.131-.174l-.026-.806-.007-.49.007-.716.026-.554.091-4.029v-.316q0-1.322.832-1.476c.138-.022.207-.088.207-.2s-.069-.184-.207-.184c-.039,0-.1,0-.188.013a12.555,12.555,0,0,1-1.415.122,4.952,4.952,0,0,1-.556-.038,6.887,6.887,0,0,0-.75-.065c-.125,0-.187.057-.187.171,0,.093.071.143.213.152a1.392,1.392,0,0,1,1.2.6,4.626,4.626,0,0,1,.306,2.05q0,1.289-.058,2.712c-.008.263-.058.394-.148.394s-.294-.164-.586-.491l-.218-.245L69.8,39.718q-.052-.065-.316-.374Zm10.608-.874a4.128,4.128,0,0,0-2.448,2.537,5.067,5.067,0,0,0-.316,1.746,4.367,4.367,0,0,0,1.251,3.271,4.579,4.579,0,0,0,3.342,1.223,4.346,4.346,0,0,0,3.432-1.407,5.1,5.1,0,0,0,1.278-3.513,4.039,4.039,0,0,0-1.239-3.076,4.539,4.539,0,0,0-3.251-1.172,5.4,5.4,0,0,0-2.049.391Zm3.687.932a3.966,3.966,0,0,1,.981,1.532,5.511,5.511,0,0,1,.368,1.978,4.534,4.534,0,0,1-.794,2.8,2.52,2.52,0,0,1-2.116,1.048A2.815,2.815,0,0,1,79.838,45.5a5.5,5.5,0,0,1-.916-3.293,4.347,4.347,0,0,1,.729-2.678,2.4,2.4,0,0,1,2.026-.961,2.964,2.964,0,0,1,2.1.839Zm9.667-1q-.013.171.219.2l.291.045q.535.071.535.5a.814.814,0,0,1-.133.438,8.569,8.569,0,0,1-.663.824l-.672.8-.3.348a.32.32,0,0,1-.168.122c-.074.005-.177-.09-.311-.283l-.467-.676-.447-.612a2.727,2.727,0,0,1-.473-1.07.365.365,0,0,1,.142-.3.686.686,0,0,1,.381-.174c.154-.018.232-.086.232-.2s-.067-.171-.2-.171c-.1,0-.232.009-.412.026l-.6.065a7.827,7.827,0,0,1-.838.038q-.508,0-1.565-.077c-.168-.013-.288-.019-.361-.019-.137,0-.206.063-.206.19s.082.186.245.216a1.874,1.874,0,0,1,.981.483,21.2,21.2,0,0,1,1.579,2.049q.424.6.74,1.011a2.491,2.491,0,0,1,.484.766c0,.091-.159.307-.477.651q-.317.334-1.056,1.224a11.566,11.566,0,0,1-1.348,1.436,2.3,2.3,0,0,1-1,.516c-.116.026-.171.083-.167.171a.124.124,0,0,0,.058.112l.174.033.291-.013.575-.02c.246-.012.442-.019.589-.019q.787,0,1.57.078c.116.012.2.019.246.019q.135,0,.135-.165c0-.109-.071-.168-.212-.177-.671-.052-1.007-.253-1.007-.606q0-.489,1.471-2.157c.154-.181.287-.333.4-.458.068-.077.12-.116.154-.116s.073.039.129.116l.325.419q.822,1.064,1.14,1.559a1.629,1.629,0,0,1,.318.728c0,.3-.175.457-.523.483-.159.013-.239.081-.239.2,0,.1.073.158.219.158.108,0,.282-.006.522-.019l.709-.046c.18-.012.369-.019.567-.019.287,0,.627.015,1.017.045l.812.065c.12.008.215.013.284.013.154,0,.232-.059.232-.177s-.076-.2-.226-.217a1.812,1.812,0,0,1-1.181-.515,17.2,17.2,0,0,1-1.811-2.261q-.671-.966-.845-1.185a1.746,1.746,0,0,1-.373-.593c0-.073.1-.214.29-.425q.07-.077.844-1a13.31,13.31,0,0,1,1.869-1.9,1.845,1.845,0,0,1,.858-.315q.213-.033.213-.2t-.18-.171c-.107,0-.243.007-.406.02l-.792.058q-.309.02-.586.019-.528,0-1.14-.045c-.107-.008-.184-.013-.232-.013q-.206,0-.225.177Zm8.069.739a.513.513,0,0,1,.478-.555c.18-.035.271-.1.271-.2a.158.158,0,0,0-.181-.177c-.086,0-.272.008-.56.026l-.676.032-1.082-.032A6.6,6.6,0,0,1,99,38.189c-.094-.009-.158-.013-.193-.013a.158.158,0,0,0-.18.177c0,.109.086.182.258.217a1.116,1.116,0,0,1,.713.477,8.475,8.475,0,0,1,.706,1.566q.375,1.012.936,2.289l1.529,3.468.161.394.149.328a.219.219,0,0,0,.2.155c.122,0,.224-.1.307-.29q.045-.11.393-.825.045-.084.581-1.277l1.1-2.43.961-2.224a7.786,7.786,0,0,1,.675-1.3.963.963,0,0,1,.609-.384c.129-.026.194-.09.194-.191s-.039-.164-.116-.164a1.872,1.872,0,0,0-.258.026,5.788,5.788,0,0,1-1.017.077c-.129,0-.345-.008-.65-.025l-.676-.039c-.185-.009-.3-.013-.361-.013-.107,0-.161.05-.161.151s.075.16.226.178a1.5,1.5,0,0,1,.8.332.845.845,0,0,1,.281.654,6.563,6.563,0,0,1-.719,2.288l-1.456,3.223c-.056.125-.108.185-.155.18s-.111-.083-.175-.238l-1.44-3.526a7.883,7.883,0,0,1-.707-2.294Zm11,.445a1.372,1.372,0,0,1,.132-.735.918.918,0,0,1,.6-.258.277.277,0,0,0,.161-.059.271.271,0,0,0,.032-.158c0-.1-.071-.157-.213-.157q-.354,0-1.019.049l-.471.037c-.357.028-.656.043-.9.043a4,4,0,0,1-.78-.052,2.762,2.762,0,0,0-.349-.051c-.1-.005-.155.054-.155.176a.171.171,0,0,0,.094.167,1.68,1.68,0,0,0,.422.1,1.172,1.172,0,0,1,.755.335,1.335,1.335,0,0,1,.207.843V45l-.007.573a1.579,1.579,0,0,1-.151.8,1.163,1.163,0,0,1-.616.409l-.188.152.013.052a.172.172,0,0,0,.181.138,2.808,2.808,0,0,0,.464-.061A6.033,6.033,0,0,1,111.75,47a12.714,12.714,0,0,1,1.361.1c.224.023.4.034.516.034q.42,0,.42-.19c0-.131-.106-.2-.317-.2a1.142,1.142,0,0,1-.783-.264,1.228,1.228,0,0,1-.378-.761l-.051-.644V39.582Zm6.307-.117q0-.85.651-.9c.185-.009.278-.066.278-.171,0-.123-.13-.184-.388-.184a10.211,10.211,0,0,0-1.028.051,9.729,9.729,0,0,1-.988.078q-.195,0-.588-.039l-.278-.019c-.108-.013-.192-.022-.252-.026a1.289,1.289,0,0,0-.188-.019.172.172,0,0,0-.194.2c0,.105.082.171.246.2l.387.064q.858.137.858,1.165v5.381a2.714,2.714,0,0,1-.158,1.085.845.845,0,0,1-.571.447c-.112.031-.168.086-.168.164,0,.114.062.171.187.171.06,0,.179-.01.355-.03a14.225,14.225,0,0,1,1.613-.1q.451,0,.806.02l.7.032.774.045c.3.022.5.032.613.032a1.58,1.58,0,0,0,1.283-.567,2.233,2.233,0,0,0,.536-1.465c0-.176-.039-.264-.118-.264-.048,0-.166.13-.353.392a3.54,3.54,0,0,1-3.1,1.285,1.557,1.557,0,0,1-.63-.084q-.29-.147-.289-1.352V39.465Zm8.877,0q0-.85.651-.9c.185-.009.278-.066.278-.171,0-.123-.13-.184-.388-.184a10.211,10.211,0,0,0-1.028.051,9.729,9.729,0,0,1-.988.078q-.2,0-.588-.039l-.278-.019c-.108-.013-.192-.022-.252-.026a1.289,1.289,0,0,0-.188-.019.172.172,0,0,0-.194.2c0,.105.082.171.246.2l.387.064q.858.137.858,1.165v5.381a2.714,2.714,0,0,1-.158,1.085.845.845,0,0,1-.571.447c-.112.031-.168.086-.168.164,0,.114.062.171.187.171.06,0,.178-.01.355-.03a14.225,14.225,0,0,1,1.613-.1q.452,0,.806.02l.7.032.775.045c.3.022.5.032.612.032a1.581,1.581,0,0,0,1.284-.567,2.233,2.233,0,0,0,.536-1.465c0-.176-.039-.264-.118-.264-.048,0-.166.13-.353.392a3.54,3.54,0,0,1-3.1,1.285,1.557,1.557,0,0,1-.63-.084q-.289-.147-.289-1.352V39.465Zm8.877.008c0-.366.109-.583.329-.652l.438-.051h.787a3,3,0,0,1,1.513.288,1.009,1.009,0,0,1,.468.93q0,.291.123.285.251-.014.251-.5,0-.246-.051-.807c-.026-.254-.039-.43-.039-.529,0-.142-.063-.213-.187-.213a.643.643,0,0,0-.091.007q-.49.057-2.6.058l-2.445-.026-.651-.026c-.134,0-.239,0-.316-.006-.1-.009-.164-.013-.194-.013-.142,0-.213.05-.213.151a.178.178,0,0,0,.174.191,1.67,1.67,0,0,1,.978.36,1.492,1.492,0,0,1,.235.979v5.109a4.711,4.711,0,0,1-.071.927,1.283,1.283,0,0,1-.209.564,1.247,1.247,0,0,1-.5.3c-.1.04-.147.1-.142.178a.146.146,0,0,0,.167.145c.078,0,.205-.007.381-.019q.962-.058,1.432-.059.7,0,1.116.039l.749.071a8.879,8.879,0,0,0,.916.052,2.493,2.493,0,0,0,1.129-.217,1.726,1.726,0,0,0,.71-.721,2.438,2.438,0,0,0,.342-1.229.19.19,0,0,0-.055-.139.13.13,0,0,0-.12-.043c-.021,0-.047.033-.077.084q-.807,1.595-3.426,1.594a.81.81,0,0,1-.458-.1.821.821,0,0,1-.258-.393,4.273,4.273,0,0,1-.142-1.308v-.579a9.424,9.424,0,0,1,.039-1.018.594.594,0,0,1,.151-.377.7.7,0,0,1,.423-.093h.439a5.915,5.915,0,0,1,.906.045.812.812,0,0,1,.41.2,1.389,1.389,0,0,1,.387.832c.026.172.092.254.2.245a.129.129,0,0,0,.1-.045.259.259,0,0,0,.02-.123l-.007-.329q0-.369-.039-.867c-.038-.508-.058-.832-.058-.969,0-.078,0-.173.013-.285.013-.155.019-.25.019-.284,0-.121-.047-.179-.141-.175a.212.212,0,0,0-.194.123l-.148.316a1.08,1.08,0,0,1-.987.7h-.549l-.284.006-.193.007c-.224,0-.365-.054-.423-.161a2.014,2.014,0,0,1-.087-.762v-1.4l.007-.264Z"/><polygon class="cls-3" points="47.056 47 47.056 0 0.057 0 0.057 47 47.056 47 47.056 47"/><path class="cls-4" d="M41.124,5.928V17.786H36.732c0-2.183-2.162-3.952-4.83-3.952A4.982,4.982,0,0,0,27.51,16.14V30.961a5.6,5.6,0,0,0,5.476,5.709H33v4.392H14.114V36.67h.013A5.6,5.6,0,0,0,19.6,30.961V16.14a4.983,4.983,0,0,0-4.392-2.306c-2.668,0-4.831,1.769-4.831,3.952H5.989V5.928Z"/><path class="cls-1" d="M0,66.581v-5.17H.657v5.107c0,2.085,1.125,3.285,3,3.285,1.8,0,2.945-1.086,2.945-3.222v-5.17h.657v5.094c0,2.54-1.479,3.893-3.628,3.893A3.452,3.452,0,0,1,0,66.581Z"/><path class="cls-1" d="M9.8,61.411h.619l6.105,7.7v-7.7h.632v8.848H16.66L10.429,62.4v7.862H9.8Z"/><path class="cls-1" d="M19.829,61.411h.657v8.848h-.657Z"/><path class="cls-1" d="M22.256,61.411h.733l3.463,8.14,3.476-8.14h.7L26.73,70.322h-.581Z"/><path class="cls-1" d="M32.305,61.411h6.3v.607H32.963v3.476h5.068V66.1H32.963v3.551h5.7v.607H32.305Z"/><path class="cls-1" d="M40.586,61.411H44.3a3.489,3.489,0,0,1,2.49.872,2.336,2.336,0,0,1,.67,1.643v.026c0,1.479-1.1,2.325-2.591,2.527l2.919,3.78h-.834l-2.818-3.666H41.243v3.666h-.657ZM44.226,66c1.479,0,2.579-.746,2.579-2.022v-.025c0-1.188-.936-1.934-2.541-1.934H41.243V66Z"/><path class="cls-1" d="M48.967,68.97l.43-.494a4.292,4.292,0,0,0,3.172,1.315c1.328,0,2.237-.746,2.237-1.757v-.025c0-.936-.493-1.479-2.5-1.884-2.123-.429-2.983-1.149-2.983-2.489V63.61c0-1.314,1.2-2.325,2.844-2.325A4.406,4.406,0,0,1,55.2,62.359l-.417.518a3.809,3.809,0,0,0-2.642-1c-1.3,0-2.161.746-2.161,1.668v.026c0,.935.48,1.5,2.579,1.934,2.047.416,2.907,1.15,2.907,2.438v.026c0,1.429-1.227,2.414-2.933,2.414A5.036,5.036,0,0,1,48.967,68.97Z"/><path class="cls-1" d="M57.525,61.411h.658v8.848h-.658Z"/><path class="cls-1" d="M63.157,62.018H60.072v-.607H66.9v.607H63.814v8.241h-.657Z"/><path class="cls-1" d="M72.018,66.758l-3.792-5.347h.822l3.311,4.753,3.324-4.753h.784l-3.792,5.334v3.514h-.657Z"/><path class="cls-1" d="M81.508,61.411h.657v8.241H87.36v.607H81.508Z"/><path class="cls-1" d="M89.194,61.411h.657v8.848h-.657Z"/><path class="cls-1" d="M92.47,61.411h3.653a3.215,3.215,0,0,1,2.3.784,1.905,1.905,0,0,1,.569,1.39v.025a2.188,2.188,0,0,1-1.5,2.1c1.062.277,2,.884,2,2.11v.026c0,1.479-1.264,2.414-3.172,2.414H92.47Zm5.852,2.237c0-.973-.8-1.63-2.212-1.63H93.127v3.476h2.92c1.327,0,2.275-.644,2.275-1.82Zm-2.2,2.453h-3v3.551h3.211c1.517,0,2.477-.7,2.477-1.807v-.026C98.815,66.732,97.867,66.1,96.123,66.1Z"/><path class="cls-1" d="M101.61,61.411h3.715a3.49,3.49,0,0,1,2.491.872,2.336,2.336,0,0,1,.67,1.643v.026c0,1.479-1.1,2.325-2.592,2.527l2.92,3.78h-.834l-2.819-3.666h-2.894v3.666h-.657ZM105.25,66c1.478,0,2.579-.746,2.579-2.022v-.025c0-1.188-.936-1.934-2.541-1.934h-3.021V66Z"/><path class="cls-1" d="M114.324,61.348h.632l4.121,8.911h-.721l-1.125-2.477h-5.22l-1.125,2.477H110.2Zm2.629,5.84-2.326-5.12-2.338,5.12Z"/><path class="cls-1" d="M120.847,61.411h3.717a3.488,3.488,0,0,1,2.489.872,2.337,2.337,0,0,1,.671,1.643v.026c0,1.479-1.1,2.325-2.592,2.527l2.92,3.78h-.835L124.4,66.593H121.5v3.666h-.657ZM124.488,66c1.479,0,2.578-.746,2.578-2.022v-.025c0-1.188-.936-1.934-2.541-1.934H121.5V66Z"/><path class="cls-1" d="M129.975,61.411h.657v8.848h-.657Z"/><path class="cls-1" d="M133.248,61.411h6.3v.607h-5.638v3.476h5.069V66.1h-5.069v3.551h5.7v.607h-6.358Z"/><path class="cls-1" d="M140.921,68.97l.43-.494a4.294,4.294,0,0,0,3.173,1.315c1.327,0,2.236-.746,2.236-1.757v-.025c0-.936-.492-1.479-2.5-1.884-2.124-.429-2.983-1.149-2.983-2.489V63.61c0-1.314,1.2-2.325,2.844-2.325a4.406,4.406,0,0,1,3.033,1.074l-.416.518a3.814,3.814,0,0,0-2.642-1c-1.3,0-2.162.746-2.162,1.668v.026c0,.935.481,1.5,2.579,1.934,2.047.416,2.907,1.15,2.907,2.438v.026c0,1.429-1.226,2.414-2.933,2.414A5.036,5.036,0,0,1,140.921,68.97Z"/></svg>